M48
; DRILL file {KiCad 5.1.10-88a1d61d58~90~ubuntu20.04.1} date Sat Aug  7 12:35:59 2021
; FORMAT={-:-/ absolute / inch / decimal}
; #@! TF.CreationDate,2021-08-07T12:35:59-04:00
; #@! TF.GenerationSoftware,Kicad,Pcbnew,5.1.10-88a1d61d58~90~ubuntu20.04.1
; #@! TF.FileFunction,Plated,1,2,PTH
FMAT,2
INCH
T1C0.0394
T2C0.0472
T3C0.0689
%
G90
G05
T1
X7.1622Y-5.3417
X7.2622Y-5.3417
X7.3622Y-5.3417
X7.4622Y-5.3417
X7.5622Y-5.3417
X7.6622Y-5.3417
T2
X6.6622Y-5.7417
X6.7622Y-5.7417
X7.0622Y-5.7417
X7.1622Y-5.7417
X7.4622Y-5.7417
X7.5622Y-5.7417
T3
X6.5157Y-2.126
X6.5157Y-4.8819
X6.7126Y-5.0787
X7.1063Y-2.126
X7.1063Y-4.8819
X7.3031Y-5.0787
X7.6969Y-2.126
X7.6969Y-4.8819
X7.8937Y-5.0787
X8.2874Y-2.126
X8.2874Y-4.8819
X8.4843Y-5.0787
T0
M30
