%TF.GenerationSoftware,KiCad,Pcbnew,5.1.10-88a1d61d58~90~ubuntu20.04.1*%
%TF.CreationDate,2021-08-07T12:40:56-04:00*%
%TF.ProjectId,ao_audio_mixer,616f5f61-7564-4696-9f5f-6d697865722e,rev?*%
%TF.SameCoordinates,Original*%
%TF.FileFunction,Soldermask,Top*%
%TF.FilePolarity,Negative*%
%FSLAX46Y46*%
G04 Gerber Fmt 4.6, Leading zero omitted, Abs format (unit mm)*
G04 Created by KiCad (PCBNEW 5.1.10-88a1d61d58~90~ubuntu20.04.1) date 2021-08-07 12:40:56*
%MOMM*%
%LPD*%
G01*
G04 APERTURE LIST*
%ADD10R,2.500000X2.500000*%
%ADD11C,2.500000*%
%ADD12O,1.700000X1.700000*%
%ADD13R,1.700000X1.700000*%
%ADD14O,1.740000X2.200000*%
%ADD15C,3.200000*%
G04 APERTURE END LIST*
D10*
%TO.C,RV4*%
X195500000Y-124000000D03*
D11*
X200500000Y-129000000D03*
X195500000Y-54000000D03*
%TD*%
D12*
%TO.C,J5*%
X194620000Y-135680000D03*
X192080000Y-135680000D03*
X189540000Y-135680000D03*
X187000000Y-135680000D03*
X184460000Y-135680000D03*
D13*
X181920000Y-135680000D03*
%TD*%
%TO.C,J2*%
G36*
G01*
X178510000Y-146690001D02*
X178510000Y-144989999D01*
G75*
G02*
X178759999Y-144740000I249999J0D01*
G01*
X180000001Y-144740000D01*
G75*
G02*
X180250000Y-144989999I0J-249999D01*
G01*
X180250000Y-146690001D01*
G75*
G02*
X180000001Y-146940000I-249999J0D01*
G01*
X178759999Y-146940000D01*
G75*
G02*
X178510000Y-146690001I0J249999D01*
G01*
G37*
D14*
X181920000Y-145840000D03*
%TD*%
%TO.C,J1*%
G36*
G01*
X168350000Y-146690001D02*
X168350000Y-144989999D01*
G75*
G02*
X168599999Y-144740000I249999J0D01*
G01*
X169840001Y-144740000D01*
G75*
G02*
X170090000Y-144989999I0J-249999D01*
G01*
X170090000Y-146690001D01*
G75*
G02*
X169840001Y-146940000I-249999J0D01*
G01*
X168599999Y-146940000D01*
G75*
G02*
X168350000Y-146690001I0J249999D01*
G01*
G37*
X171760000Y-145840000D03*
%TD*%
D15*
%TO.C,H7*%
X160000000Y-144000000D03*
%TD*%
D10*
%TO.C,RV1*%
X210500000Y-124000000D03*
D11*
X215500000Y-129000000D03*
X210500000Y-54000000D03*
%TD*%
D15*
%TO.C,H8*%
X220000000Y-144000000D03*
%TD*%
D10*
%TO.C,RV2*%
X165500000Y-124000000D03*
D11*
X170500000Y-129000000D03*
X165500000Y-54000000D03*
%TD*%
D15*
%TO.C,H5*%
X160000000Y-39000000D03*
%TD*%
%TO.C,H6*%
X220000000Y-39000000D03*
%TD*%
D10*
%TO.C,RV3*%
X180500000Y-124000000D03*
D11*
X185500000Y-129000000D03*
X180500000Y-54000000D03*
%TD*%
%TO.C,J3*%
G36*
G01*
X188670000Y-146690001D02*
X188670000Y-144989999D01*
G75*
G02*
X188919999Y-144740000I249999J0D01*
G01*
X190160001Y-144740000D01*
G75*
G02*
X190410000Y-144989999I0J-249999D01*
G01*
X190410000Y-146690001D01*
G75*
G02*
X190160001Y-146940000I-249999J0D01*
G01*
X188919999Y-146940000D01*
G75*
G02*
X188670000Y-146690001I0J249999D01*
G01*
G37*
D14*
X192080000Y-145840000D03*
%TD*%
M02*
