%TF.GenerationSoftware,KiCad,Pcbnew,5.1.10-88a1d61d58~90~ubuntu20.04.1*%
%TF.CreationDate,2021-08-12T14:59:43-04:00*%
%TF.ProjectId,ao_audio_mixer,616f5f61-7564-4696-9f5f-6d697865722e,rev?*%
%TF.SameCoordinates,Original*%
%TF.FileFunction,Legend,Bot*%
%TF.FilePolarity,Positive*%
%FSLAX46Y46*%
G04 Gerber Fmt 4.6, Leading zero omitted, Abs format (unit mm)*
G04 Created by KiCad (PCBNEW 5.1.10-88a1d61d58~90~ubuntu20.04.1) date 2021-08-12 14:59:43*
%MOMM*%
%LPD*%
G01*
G04 APERTURE LIST*
%ADD10C,0.150000*%
%ADD11C,0.120000*%
G04 APERTURE END LIST*
D10*
X191632000Y-151626380D02*
X191632000Y-150626380D01*
X191155809Y-151626380D02*
X191155809Y-150626380D01*
X190584380Y-151626380D01*
X190584380Y-150626380D01*
X190203428Y-150626380D02*
X189584380Y-150626380D01*
X189917714Y-151007333D01*
X189774857Y-151007333D01*
X189679619Y-151054952D01*
X189632000Y-151102571D01*
X189584380Y-151197809D01*
X189584380Y-151435904D01*
X189632000Y-151531142D01*
X189679619Y-151578761D01*
X189774857Y-151626380D01*
X190060571Y-151626380D01*
X190155809Y-151578761D01*
X190203428Y-151531142D01*
X171312000Y-151626380D02*
X171312000Y-150626380D01*
X170835809Y-151626380D02*
X170835809Y-150626380D01*
X170264380Y-151626380D01*
X170264380Y-150626380D01*
X169264380Y-151626380D02*
X169835809Y-151626380D01*
X169550095Y-151626380D02*
X169550095Y-150626380D01*
X169645333Y-150769238D01*
X169740571Y-150864476D01*
X169835809Y-150912095D01*
X181472000Y-151626380D02*
X181472000Y-150626380D01*
X180995809Y-151626380D02*
X180995809Y-150626380D01*
X180424380Y-151626380D01*
X180424380Y-150626380D01*
X179995809Y-150721619D02*
X179948190Y-150674000D01*
X179852952Y-150626380D01*
X179614857Y-150626380D01*
X179519619Y-150674000D01*
X179472000Y-150721619D01*
X179424380Y-150816857D01*
X179424380Y-150912095D01*
X179472000Y-151054952D01*
X180043428Y-151626380D01*
X179424380Y-151626380D01*
D11*
%TO.C,J4*%
X183190000Y-134350000D02*
X183190000Y-137010000D01*
X183190000Y-134350000D02*
X201030000Y-134350000D01*
X201030000Y-134350000D02*
X201030000Y-137010000D01*
X183190000Y-137010000D02*
X201030000Y-137010000D01*
X180590000Y-137010000D02*
X181920000Y-137010000D01*
X180590000Y-135680000D02*
X180590000Y-137010000D01*
D10*
X178602380Y-135346666D02*
X179316666Y-135346666D01*
X179459523Y-135299047D01*
X179554761Y-135203809D01*
X179602380Y-135060952D01*
X179602380Y-134965714D01*
X178935714Y-136251428D02*
X179602380Y-136251428D01*
X178554761Y-136013333D02*
X179269047Y-135775238D01*
X179269047Y-136394285D01*
%TD*%
M02*
