M48
; DRILL file {KiCad 5.1.10-88a1d61d58~90~ubuntu20.04.1} date Thu Aug 12 14:59:49 2021
; FORMAT={-:-/ absolute / inch / decimal}
; #@! TF.CreationDate,2021-08-12T14:59:49-04:00
; #@! TF.GenerationSoftware,Kicad,Pcbnew,5.1.10-88a1d61d58~90~ubuntu20.04.1
; #@! TF.FileFunction,Plated,1,2,PTH
FMAT,2
INCH
T1C0.0394
T2C0.0689
T3C0.1063
%
G90
G05
T1
X7.1622Y-5.3417
X7.2622Y-5.3417
X7.3622Y-5.3417
X7.4622Y-5.3417
X7.5622Y-5.3417
X7.6622Y-5.3417
X7.7622Y-5.3417
X7.8622Y-5.3417
T2
X6.5157Y-2.126
X6.5157Y-4.8819
X6.7126Y-5.0787
X7.1063Y-2.126
X7.1063Y-4.8819
X7.3031Y-5.0787
X7.6969Y-2.126
X7.6969Y-4.8819
X7.8937Y-5.0787
X8.2874Y-2.126
X8.2874Y-4.8819
X8.4843Y-5.0787
T3
X6.3425Y-6.5551
X6.4079Y-6.8402
X6.5748Y-6.4016
X6.6929Y-6.9055
X6.8465Y-6.6732
X7.2283Y-6.5551
X7.2283Y-7.5394
X7.2937Y-6.8402
X7.2937Y-7.8244
X7.4606Y-6.4016
X7.4606Y-7.3858
X7.5787Y-6.9055
X7.5787Y-7.8898
X7.7323Y-6.6732
X7.7323Y-7.6575
X8.1142Y-6.5551
X8.1142Y-7.5394
X8.1795Y-6.8402
X8.1795Y-7.8244
X8.3465Y-6.4016
X8.3465Y-7.3858
X8.4646Y-6.9055
X8.4646Y-7.8898
X8.6181Y-6.6732
X8.6181Y-7.6575
T0
M30
