%TF.GenerationSoftware,KiCad,Pcbnew,5.1.10-88a1d61d58~90~ubuntu20.04.1*%
%TF.CreationDate,2021-08-07T12:40:56-04:00*%
%TF.ProjectId,ao_audio_mixer,616f5f61-7564-4696-9f5f-6d697865722e,rev?*%
%TF.SameCoordinates,Original*%
%TF.FileFunction,Legend,Bot*%
%TF.FilePolarity,Positive*%
%FSLAX46Y46*%
G04 Gerber Fmt 4.6, Leading zero omitted, Abs format (unit mm)*
G04 Created by KiCad (PCBNEW 5.1.10-88a1d61d58~90~ubuntu20.04.1) date 2021-08-07 12:40:56*
%MOMM*%
%LPD*%
G01*
G04 APERTURE LIST*
%ADD10C,0.150000*%
%ADD11C,0.120000*%
G04 APERTURE END LIST*
D10*
X171312000Y-151626380D02*
X171312000Y-150626380D01*
X170835809Y-151626380D02*
X170835809Y-150626380D01*
X170264380Y-151626380D01*
X170264380Y-150626380D01*
X169264380Y-151626380D02*
X169835809Y-151626380D01*
X169550095Y-151626380D02*
X169550095Y-150626380D01*
X169645333Y-150769238D01*
X169740571Y-150864476D01*
X169835809Y-150912095D01*
X181472000Y-151626380D02*
X181472000Y-150626380D01*
X180995809Y-151626380D02*
X180995809Y-150626380D01*
X180424380Y-151626380D01*
X180424380Y-150626380D01*
X179995809Y-150721619D02*
X179948190Y-150674000D01*
X179852952Y-150626380D01*
X179614857Y-150626380D01*
X179519619Y-150674000D01*
X179472000Y-150721619D01*
X179424380Y-150816857D01*
X179424380Y-150912095D01*
X179472000Y-151054952D01*
X180043428Y-151626380D01*
X179424380Y-151626380D01*
X191632000Y-151626380D02*
X191632000Y-150626380D01*
X191155809Y-151626380D02*
X191155809Y-150626380D01*
X190584380Y-151626380D01*
X190584380Y-150626380D01*
X190203428Y-150626380D02*
X189584380Y-150626380D01*
X189917714Y-151007333D01*
X189774857Y-151007333D01*
X189679619Y-151054952D01*
X189632000Y-151102571D01*
X189584380Y-151197809D01*
X189584380Y-151435904D01*
X189632000Y-151531142D01*
X189679619Y-151578761D01*
X189774857Y-151626380D01*
X190060571Y-151626380D01*
X190155809Y-151578761D01*
X190203428Y-151531142D01*
D11*
%TO.C,J5*%
X180590000Y-135680000D02*
X180590000Y-137010000D01*
X180590000Y-137010000D02*
X181920000Y-137010000D01*
X183190000Y-137010000D02*
X195950000Y-137010000D01*
X195950000Y-134350000D02*
X195950000Y-137010000D01*
X183190000Y-134350000D02*
X195950000Y-134350000D01*
X183190000Y-134350000D02*
X183190000Y-137010000D01*
%TO.C,J2*%
X182720000Y-148270000D02*
X182720000Y-148870000D01*
X181120000Y-148270000D02*
X182720000Y-148270000D01*
X181120000Y-148870000D02*
X181120000Y-148270000D01*
X180180000Y-148270000D02*
X180180000Y-148870000D01*
X178580000Y-148270000D02*
X180180000Y-148270000D01*
X178580000Y-148870000D02*
X178580000Y-148270000D01*
X181670000Y-142850000D02*
X181670000Y-143850000D01*
X179630000Y-142850000D02*
X179630000Y-143850000D01*
X181670000Y-144380000D02*
X181920000Y-143850000D01*
X179630000Y-144380000D02*
X181670000Y-144380000D01*
X179380000Y-143850000D02*
X179630000Y-144380000D01*
X181920000Y-143850000D02*
X181920000Y-142850000D01*
X179380000Y-143850000D02*
X181920000Y-143850000D01*
X179380000Y-142850000D02*
X179380000Y-143850000D01*
X177710000Y-147840000D02*
X177710000Y-143840000D01*
X183300000Y-148870000D02*
X178000000Y-148870000D01*
X183300000Y-142850000D02*
X183300000Y-148870000D01*
X178000000Y-142850000D02*
X183300000Y-142850000D01*
X178000000Y-148870000D02*
X178000000Y-142850000D01*
%TO.C,J1*%
X172560000Y-148270000D02*
X172560000Y-148870000D01*
X170960000Y-148270000D02*
X172560000Y-148270000D01*
X170960000Y-148870000D02*
X170960000Y-148270000D01*
X170020000Y-148270000D02*
X170020000Y-148870000D01*
X168420000Y-148270000D02*
X170020000Y-148270000D01*
X168420000Y-148870000D02*
X168420000Y-148270000D01*
X171510000Y-142850000D02*
X171510000Y-143850000D01*
X169470000Y-142850000D02*
X169470000Y-143850000D01*
X171510000Y-144380000D02*
X171760000Y-143850000D01*
X169470000Y-144380000D02*
X171510000Y-144380000D01*
X169220000Y-143850000D02*
X169470000Y-144380000D01*
X171760000Y-143850000D02*
X171760000Y-142850000D01*
X169220000Y-143850000D02*
X171760000Y-143850000D01*
X169220000Y-142850000D02*
X169220000Y-143850000D01*
X167550000Y-147840000D02*
X167550000Y-143840000D01*
X173140000Y-148870000D02*
X167840000Y-148870000D01*
X173140000Y-142850000D02*
X173140000Y-148870000D01*
X167840000Y-142850000D02*
X173140000Y-142850000D01*
X167840000Y-148870000D02*
X167840000Y-142850000D01*
%TO.C,J3*%
X192880000Y-148270000D02*
X192880000Y-148870000D01*
X191280000Y-148270000D02*
X192880000Y-148270000D01*
X191280000Y-148870000D02*
X191280000Y-148270000D01*
X190340000Y-148270000D02*
X190340000Y-148870000D01*
X188740000Y-148270000D02*
X190340000Y-148270000D01*
X188740000Y-148870000D02*
X188740000Y-148270000D01*
X191830000Y-142850000D02*
X191830000Y-143850000D01*
X189790000Y-142850000D02*
X189790000Y-143850000D01*
X191830000Y-144380000D02*
X192080000Y-143850000D01*
X189790000Y-144380000D02*
X191830000Y-144380000D01*
X189540000Y-143850000D02*
X189790000Y-144380000D01*
X192080000Y-143850000D02*
X192080000Y-142850000D01*
X189540000Y-143850000D02*
X192080000Y-143850000D01*
X189540000Y-142850000D02*
X189540000Y-143850000D01*
X187870000Y-147840000D02*
X187870000Y-143840000D01*
X193460000Y-148870000D02*
X188160000Y-148870000D01*
X193460000Y-142850000D02*
X193460000Y-148870000D01*
X188160000Y-142850000D02*
X193460000Y-142850000D01*
X188160000Y-148870000D02*
X188160000Y-142850000D01*
%TO.C,J5*%
D10*
X178602380Y-135346666D02*
X179316666Y-135346666D01*
X179459523Y-135299047D01*
X179554761Y-135203809D01*
X179602380Y-135060952D01*
X179602380Y-134965714D01*
X178602380Y-136299047D02*
X178602380Y-135822857D01*
X179078571Y-135775238D01*
X179030952Y-135822857D01*
X178983333Y-135918095D01*
X178983333Y-136156190D01*
X179030952Y-136251428D01*
X179078571Y-136299047D01*
X179173809Y-136346666D01*
X179411904Y-136346666D01*
X179507142Y-136299047D01*
X179554761Y-136251428D01*
X179602380Y-136156190D01*
X179602380Y-135918095D01*
X179554761Y-135822857D01*
X179507142Y-135775238D01*
%TO.C,J2*%
X180900000Y-149549285D02*
X180900000Y-150085000D01*
X180935714Y-150192142D01*
X181007142Y-150263571D01*
X181114285Y-150299285D01*
X181185714Y-150299285D01*
X180578571Y-149620714D02*
X180542857Y-149585000D01*
X180471428Y-149549285D01*
X180292857Y-149549285D01*
X180221428Y-149585000D01*
X180185714Y-149620714D01*
X180150000Y-149692142D01*
X180150000Y-149763571D01*
X180185714Y-149870714D01*
X180614285Y-150299285D01*
X180150000Y-150299285D01*
%TO.C,J1*%
X170740000Y-149549285D02*
X170740000Y-150085000D01*
X170775714Y-150192142D01*
X170847142Y-150263571D01*
X170954285Y-150299285D01*
X171025714Y-150299285D01*
X169990000Y-150299285D02*
X170418571Y-150299285D01*
X170204285Y-150299285D02*
X170204285Y-149549285D01*
X170275714Y-149656428D01*
X170347142Y-149727857D01*
X170418571Y-149763571D01*
%TO.C,J3*%
X191060000Y-149549285D02*
X191060000Y-150085000D01*
X191095714Y-150192142D01*
X191167142Y-150263571D01*
X191274285Y-150299285D01*
X191345714Y-150299285D01*
X190774285Y-149549285D02*
X190310000Y-149549285D01*
X190560000Y-149835000D01*
X190452857Y-149835000D01*
X190381428Y-149870714D01*
X190345714Y-149906428D01*
X190310000Y-149977857D01*
X190310000Y-150156428D01*
X190345714Y-150227857D01*
X190381428Y-150263571D01*
X190452857Y-150299285D01*
X190667142Y-150299285D01*
X190738571Y-150263571D01*
X190774285Y-150227857D01*
%TD*%
M02*
