%TF.GenerationSoftware,KiCad,Pcbnew,5.1.10-88a1d61d58~90~ubuntu20.04.1*%
%TF.CreationDate,2021-08-07T12:39:53-04:00*%
%TF.ProjectId,ao_audio_mixer,616f5f61-7564-4696-9f5f-6d697865722e,rev?*%
%TF.SameCoordinates,Original*%
%TF.FileFunction,Legend,Top*%
%TF.FilePolarity,Positive*%
%FSLAX46Y46*%
G04 Gerber Fmt 4.6, Leading zero omitted, Abs format (unit mm)*
G04 Created by KiCad (PCBNEW 5.1.10-88a1d61d58~90~ubuntu20.04.1) date 2021-08-07 12:39:53*
%MOMM*%
%LPD*%
G01*
G04 APERTURE LIST*
%ADD10C,0.120000*%
%ADD11C,0.150000*%
G04 APERTURE END LIST*
D10*
%TO.C,J6*%
X80590000Y-137010000D02*
X80590000Y-135680000D01*
X81920000Y-137010000D02*
X80590000Y-137010000D01*
X83190000Y-137010000D02*
X83190000Y-134350000D01*
X83190000Y-134350000D02*
X95950000Y-134350000D01*
X83190000Y-137010000D02*
X95950000Y-137010000D01*
X95950000Y-137010000D02*
X95950000Y-134350000D01*
D11*
X79042380Y-136013333D02*
X79756666Y-136013333D01*
X79899523Y-136060952D01*
X79994761Y-136156190D01*
X80042380Y-136299047D01*
X80042380Y-136394285D01*
X79042380Y-135108571D02*
X79042380Y-135299047D01*
X79090000Y-135394285D01*
X79137619Y-135441904D01*
X79280476Y-135537142D01*
X79470952Y-135584761D01*
X79851904Y-135584761D01*
X79947142Y-135537142D01*
X79994761Y-135489523D01*
X80042380Y-135394285D01*
X80042380Y-135203809D01*
X79994761Y-135108571D01*
X79947142Y-135060952D01*
X79851904Y-135013333D01*
X79613809Y-135013333D01*
X79518571Y-135060952D01*
X79470952Y-135108571D01*
X79423333Y-135203809D01*
X79423333Y-135394285D01*
X79470952Y-135489523D01*
X79518571Y-135537142D01*
X79613809Y-135584761D01*
%TD*%
M02*
