M48
; DRILL file {KiCad 5.1.10-88a1d61d58~90~ubuntu20.04.1} date Sat Aug  7 12:35:31 2021
; FORMAT={-:-/ absolute / inch / decimal}
; #@! TF.CreationDate,2021-08-07T12:35:31-04:00
; #@! TF.GenerationSoftware,Kicad,Pcbnew,5.1.10-88a1d61d58~90~ubuntu20.04.1
; #@! TF.FileFunction,Plated,1,2,PTH
FMAT,2
INCH
T1C0.0315
T2C0.0394
T3C0.0400
T4C0.0433
T5C0.0472
%
G90
G05
T1
X2.6252Y-3.6417
X2.6252Y-4.0417
X2.6252Y-4.4417
X2.822Y-4.4417
X2.9252Y-2.5417
X2.9252Y-2.9417
X3.0252Y-3.1417
X3.0252Y-3.4417
X3.0252Y-3.6433
X3.0252Y-3.7417
X3.1252Y-2.5417
X3.1252Y-2.9417
X3.1252Y-3.1417
X3.1252Y-3.4417
X3.2252Y-3.1417
X3.2252Y-3.4417
X3.2252Y-3.6417
X3.2252Y-4.0417
X3.2252Y-4.4417
X3.3252Y-2.8433
X3.3252Y-2.9417
X3.3252Y-3.1417
X3.3252Y-3.4417
X3.422Y-4.4417
X3.5252Y-2.5417
X3.5252Y-2.9417
X3.7252Y-2.5417
X3.7252Y-2.9417
X3.8252Y-3.6417
X3.8252Y-4.0417
X3.8252Y-4.4417
X4.022Y-4.4417
X4.5252Y-2.5417
X4.5268Y-4.5417
X4.6236Y-2.5417
X4.6252Y-4.5417
T2
X3.2252Y-5.3417
X3.3252Y-5.3417
X3.4252Y-5.3417
X3.5252Y-5.3417
X3.6252Y-5.3417
X3.7252Y-5.3417
T3
X4.4252Y-3.3417
X4.4252Y-3.4417
X4.4252Y-3.5417
X4.4252Y-3.6417
X4.4252Y-3.7417
X4.5252Y-3.3417
X4.5252Y-3.4417
X4.5252Y-3.5417
X4.5252Y-3.6417
X4.5252Y-3.7417
T4
X4.3252Y-2.8417
X4.3252Y-4.2417
X4.6252Y-2.8417
X4.6252Y-4.2417
T5
X3.9252Y-5.7417
X4.0252Y-5.7417
X4.3252Y-5.7417
X4.4252Y-5.7417
T0
M30
