%TF.GenerationSoftware,KiCad,Pcbnew,5.1.10-88a1d61d58~90~ubuntu20.04.1*%
%TF.CreationDate,2021-08-12T11:26:50-04:00*%
%TF.ProjectId,ao_audio_mixer,616f5f61-7564-4696-9f5f-6d697865722e,rev?*%
%TF.SameCoordinates,Original*%
%TF.FileFunction,Copper,L1,Top*%
%TF.FilePolarity,Positive*%
%FSLAX46Y46*%
G04 Gerber Fmt 4.6, Leading zero omitted, Abs format (unit mm)*
G04 Created by KiCad (PCBNEW 5.1.10-88a1d61d58~90~ubuntu20.04.1) date 2021-08-12 11:26:50*
%MOMM*%
%LPD*%
G01*
G04 APERTURE LIST*
%TA.AperFunction,ComponentPad*%
%ADD10C,1.600000*%
%TD*%
%TA.AperFunction,ComponentPad*%
%ADD11O,1.600000X1.600000*%
%TD*%
%TA.AperFunction,ComponentPad*%
%ADD12O,1.740000X2.200000*%
%TD*%
%TA.AperFunction,ComponentPad*%
%ADD13O,1.700000X1.700000*%
%TD*%
%TA.AperFunction,ComponentPad*%
%ADD14R,1.700000X1.700000*%
%TD*%
%TA.AperFunction,ComponentPad*%
%ADD15O,1.600000X2.400000*%
%TD*%
%TA.AperFunction,ComponentPad*%
%ADD16R,1.600000X2.400000*%
%TD*%
%TA.AperFunction,ComponentPad*%
%ADD17O,2.200000X2.200000*%
%TD*%
%TA.AperFunction,ComponentPad*%
%ADD18R,2.200000X2.200000*%
%TD*%
%TA.AperFunction,ComponentPad*%
%ADD19O,1.727200X1.727200*%
%TD*%
%TA.AperFunction,ComponentPad*%
%ADD20R,1.727200X1.727200*%
%TD*%
%TA.AperFunction,ComponentPad*%
%ADD21R,1.600000X1.600000*%
%TD*%
%TA.AperFunction,Conductor*%
%ADD22C,0.250000*%
%TD*%
%TA.AperFunction,Conductor*%
%ADD23C,0.254000*%
%TD*%
%TA.AperFunction,Conductor*%
%ADD24C,0.100000*%
%TD*%
G04 APERTURE END LIST*
D10*
%TO.P,R5,1*%
%TO.N,Net-(R5-Pad1)*%
X79380000Y-64560000D03*
D11*
%TO.P,R5,2*%
%TO.N,Net-(R4-Pad1)*%
X79380000Y-74720000D03*
%TD*%
D10*
%TO.P,R4,1*%
%TO.N,Net-(R4-Pad1)*%
X74300000Y-74720000D03*
D11*
%TO.P,R4,2*%
%TO.N,Net-(J6-Pad5)*%
X74300000Y-64560000D03*
%TD*%
D10*
%TO.P,R3,1*%
%TO.N,Net-(J6-Pad6)*%
X97160000Y-92500000D03*
D11*
%TO.P,R3,2*%
%TO.N,Net-(C3-Pad1)*%
X97160000Y-102660000D03*
%TD*%
D12*
%TO.P,J7,2*%
%TO.N,/OUT1*%
X112400000Y-145840000D03*
%TO.P,J7,1*%
%TO.N,GND*%
%TA.AperFunction,ComponentPad*%
G36*
G01*
X108990000Y-146690001D02*
X108990000Y-144989999D01*
G75*
G02*
X109239999Y-144740000I249999J0D01*
G01*
X110480001Y-144740000D01*
G75*
G02*
X110730000Y-144989999I0J-249999D01*
G01*
X110730000Y-146690001D01*
G75*
G02*
X110480001Y-146940000I-249999J0D01*
G01*
X109239999Y-146940000D01*
G75*
G02*
X108990000Y-146690001I0J249999D01*
G01*
G37*
%TD.AperFunction*%
%TD*%
D10*
%TO.P,R1,1*%
%TO.N,Net-(J6-Pad6)*%
X66680000Y-92500000D03*
D11*
%TO.P,R1,2*%
%TO.N,Net-(C1-Pad1)*%
X66680000Y-102660000D03*
%TD*%
D13*
%TO.P,J6,6*%
%TO.N,Net-(J6-Pad6)*%
X94620000Y-135680000D03*
%TO.P,J6,5*%
%TO.N,Net-(J6-Pad5)*%
X92080000Y-135680000D03*
%TO.P,J6,4*%
%TO.N,Net-(C3-Pad2)*%
X89540000Y-135680000D03*
%TO.P,J6,3*%
%TO.N,Net-(C2-Pad2)*%
X87000000Y-135680000D03*
%TO.P,J6,2*%
%TO.N,Net-(C1-Pad2)*%
X84460000Y-135680000D03*
D14*
%TO.P,J6,1*%
%TO.N,GND*%
X81920000Y-135680000D03*
%TD*%
D15*
%TO.P,U1,8*%
%TO.N,+12V*%
X84460000Y-79800000D03*
%TO.P,U1,4*%
%TO.N,-12V*%
X76840000Y-87420000D03*
%TO.P,U1,7*%
%TO.N,Net-(R5-Pad1)*%
X81920000Y-79800000D03*
%TO.P,U1,3*%
%TO.N,GND*%
X79380000Y-87420000D03*
%TO.P,U1,6*%
%TO.N,Net-(R4-Pad1)*%
X79380000Y-79800000D03*
%TO.P,U1,2*%
%TO.N,Net-(J6-Pad6)*%
X81920000Y-87420000D03*
%TO.P,U1,5*%
%TO.N,GND*%
X76840000Y-79800000D03*
D16*
%TO.P,U1,1*%
%TO.N,Net-(J6-Pad5)*%
X84460000Y-87420000D03*
%TD*%
D10*
%TO.P,R7,1*%
%TO.N,/OUT2*%
X89540000Y-74720000D03*
D11*
%TO.P,R7,2*%
%TO.N,Net-(R5-Pad1)*%
X89540000Y-64560000D03*
%TD*%
D17*
%TO.P,D2,2*%
%TO.N,-12V*%
X109860000Y-107740000D03*
D18*
%TO.P,D2,1*%
%TO.N,/-12_IN*%
X117480000Y-107740000D03*
%TD*%
D10*
%TO.P,C3,2*%
%TO.N,Net-(C3-Pad2)*%
X102160000Y-112820000D03*
%TO.P,C3,1*%
%TO.N,Net-(C3-Pad1)*%
X97160000Y-112820000D03*
%TD*%
%TO.P,C7,2*%
%TO.N,-12V*%
X76840000Y-92540000D03*
%TO.P,C7,1*%
%TO.N,GND*%
X76840000Y-95040000D03*
%TD*%
%TO.P,J8,1*%
%TO.N,GND*%
%TA.AperFunction,ComponentPad*%
G36*
G01*
X98830000Y-146690001D02*
X98830000Y-144989999D01*
G75*
G02*
X99079999Y-144740000I249999J0D01*
G01*
X100320001Y-144740000D01*
G75*
G02*
X100570000Y-144989999I0J-249999D01*
G01*
X100570000Y-146690001D01*
G75*
G02*
X100320001Y-146940000I-249999J0D01*
G01*
X99079999Y-146940000D01*
G75*
G02*
X98830000Y-146690001I0J249999D01*
G01*
G37*
%TD.AperFunction*%
D12*
%TO.P,J8,2*%
%TO.N,/OUT2*%
X102240000Y-145840000D03*
%TD*%
D19*
%TO.P,J4,10*%
%TO.N,/+12_IN*%
X114940000Y-84880000D03*
%TO.P,J4,9*%
X112400000Y-84880000D03*
%TO.P,J4,8*%
%TO.N,GND*%
X114940000Y-87420000D03*
%TO.P,J4,7*%
X112400000Y-87420000D03*
%TO.P,J4,6*%
X114940000Y-89960000D03*
%TO.P,J4,5*%
X112400000Y-89960000D03*
%TO.P,J4,4*%
X114940000Y-92500000D03*
%TO.P,J4,3*%
X112400000Y-92500000D03*
%TO.P,J4,2*%
%TO.N,/-12_IN*%
X114940000Y-95040000D03*
D20*
%TO.P,J4,1*%
X112400000Y-95040000D03*
%TD*%
D10*
%TO.P,C1,2*%
%TO.N,Net-(C1-Pad2)*%
X71680000Y-112820000D03*
%TO.P,C1,1*%
%TO.N,Net-(C1-Pad1)*%
X66680000Y-112820000D03*
%TD*%
%TO.P,C2,2*%
%TO.N,Net-(C2-Pad2)*%
X86920000Y-112820000D03*
%TO.P,C2,1*%
%TO.N,Net-(C2-Pad1)*%
X81920000Y-112820000D03*
%TD*%
%TO.P,C5,2*%
%TO.N,-12V*%
X114980000Y-115360000D03*
D21*
%TO.P,C5,1*%
%TO.N,GND*%
X117480000Y-115360000D03*
%TD*%
D17*
%TO.P,D1,2*%
%TO.N,/+12_IN*%
X117480000Y-72180000D03*
D18*
%TO.P,D1,1*%
%TO.N,+12V*%
X109860000Y-72180000D03*
%TD*%
D10*
%TO.P,C4,2*%
%TO.N,GND*%
X117440000Y-64560000D03*
D21*
%TO.P,C4,1*%
%TO.N,+12V*%
X114940000Y-64560000D03*
%TD*%
D10*
%TO.P,R6,1*%
%TO.N,/OUT1*%
X94620000Y-74720000D03*
D11*
%TO.P,R6,2*%
%TO.N,Net-(R5-Pad1)*%
X94620000Y-64560000D03*
%TD*%
D10*
%TO.P,C6,2*%
%TO.N,GND*%
X84460000Y-72220000D03*
%TO.P,C6,1*%
%TO.N,+12V*%
X84460000Y-74720000D03*
%TD*%
%TO.P,R2,1*%
%TO.N,Net-(J6-Pad6)*%
X81920000Y-92500000D03*
D11*
%TO.P,R2,2*%
%TO.N,Net-(C2-Pad1)*%
X81920000Y-102660000D03*
%TD*%
D22*
%TO.N,Net-(C1-Pad2)*%
X84460000Y-135680000D02*
X70500000Y-121720000D01*
X70500000Y-121720000D02*
X70500000Y-114000000D01*
X70500000Y-114000000D02*
X71680000Y-112820000D01*
%TO.N,Net-(C1-Pad1)*%
X66680000Y-112820000D02*
X66680000Y-102660000D01*
%TO.N,Net-(C2-Pad2)*%
X87000000Y-135680000D02*
X85500000Y-134180000D01*
X85500000Y-134180000D02*
X85500000Y-114240000D01*
X85500000Y-114240000D02*
X86920000Y-112820000D01*
%TO.N,Net-(C2-Pad1)*%
X81920000Y-112820000D02*
X81920000Y-102660000D01*
%TO.N,Net-(C3-Pad2)*%
X89540000Y-135680000D02*
X100500000Y-124720000D01*
X100500000Y-124720000D02*
X100500000Y-114480000D01*
X100500000Y-114480000D02*
X102160000Y-112820000D01*
%TO.N,Net-(C3-Pad1)*%
X97160000Y-112820000D02*
X97160000Y-102660000D01*
%TO.N,/OUT1*%
X94620000Y-74720000D02*
X101732000Y-81832000D01*
X101732000Y-81832000D02*
X101732000Y-96700588D01*
X101732000Y-96700588D02*
X119105011Y-114073599D01*
X119105011Y-114073599D02*
X119105011Y-127323989D01*
X119105011Y-127323989D02*
X112400000Y-134029000D01*
X112400000Y-134029000D02*
X112400000Y-145840000D01*
%TO.N,/OUT2*%
X102240000Y-143300000D02*
X102240000Y-145840000D01*
X89540000Y-74720000D02*
X101224000Y-86404000D01*
X101224000Y-86404000D02*
X101224000Y-96828998D01*
X101224000Y-96828998D02*
X118655001Y-114259999D01*
X118655001Y-114259999D02*
X118655001Y-126884999D01*
X118655001Y-126884999D02*
X102240000Y-143300000D01*
%TO.N,Net-(R4-Pad1)*%
X79380000Y-74720000D02*
X74300000Y-74720000D01*
X79380000Y-79800000D02*
X79380000Y-74720000D01*
%TO.N,Net-(R5-Pad1)*%
X81920000Y-67100000D02*
X81920000Y-67080000D01*
X81920000Y-67080000D02*
X84440000Y-64560000D01*
X84440000Y-64560000D02*
X89540000Y-64560000D01*
X89540000Y-64560000D02*
X94620000Y-64560000D01*
X79380000Y-64560000D02*
X81920000Y-67100000D01*
X81920000Y-67100000D02*
X81920000Y-79800000D01*
%TO.N,Net-(J6-Pad6)*%
X66680000Y-92500000D02*
X67815001Y-91364999D01*
X67815001Y-91364999D02*
X80784999Y-91364999D01*
X80784999Y-91364999D02*
X81920000Y-92500000D01*
X94620000Y-135680000D02*
X94620000Y-134156000D01*
X94620000Y-134156000D02*
X111003000Y-117773000D01*
X111003000Y-117773000D02*
X111003000Y-113963000D01*
X111003000Y-113963000D02*
X97160000Y-100120000D01*
X97160000Y-100120000D02*
X97160000Y-92500000D01*
X97160000Y-92500000D02*
X94366000Y-92500000D01*
X94366000Y-92500000D02*
X87127000Y-85261000D01*
X87127000Y-85261000D02*
X84079000Y-85261000D01*
X84079000Y-85261000D02*
X81920000Y-87420000D01*
%TO.N,Net-(J6-Pad5)*%
X74300000Y-64560000D02*
X73174999Y-65685001D01*
X73174999Y-65685001D02*
X73174999Y-86548999D01*
X73174999Y-86548999D02*
X75621010Y-88995010D01*
X75621010Y-88995010D02*
X82884990Y-88995010D01*
X82884990Y-88995010D02*
X84460000Y-87420000D01*
X92080000Y-135680000D02*
X110500000Y-117260000D01*
X110500000Y-117260000D02*
X110500000Y-114334998D01*
X110500000Y-114334998D02*
X84460000Y-88294998D01*
X84460000Y-88294998D02*
X84460000Y-87420000D01*
%TD*%
D23*
%TO.N,GND*%
X122315001Y-151315000D02*
X96685000Y-151315000D01*
X96685000Y-146940000D01*
X98191928Y-146940000D01*
X98204188Y-147064482D01*
X98240498Y-147184180D01*
X98299463Y-147294494D01*
X98378815Y-147391185D01*
X98475506Y-147470537D01*
X98585820Y-147529502D01*
X98705518Y-147565812D01*
X98830000Y-147578072D01*
X99414250Y-147575000D01*
X99573000Y-147416250D01*
X99573000Y-145967000D01*
X98353750Y-145967000D01*
X98195000Y-146125750D01*
X98191928Y-146940000D01*
X96685000Y-146940000D01*
X96685000Y-144740000D01*
X98191928Y-144740000D01*
X98195000Y-145554250D01*
X98353750Y-145713000D01*
X99573000Y-145713000D01*
X99573000Y-144263750D01*
X99414250Y-144105000D01*
X98830000Y-144101928D01*
X98705518Y-144114188D01*
X98585820Y-144150498D01*
X98475506Y-144209463D01*
X98378815Y-144288815D01*
X98299463Y-144385506D01*
X98240498Y-144495820D01*
X98204188Y-144615518D01*
X98191928Y-144740000D01*
X96685000Y-144740000D01*
X96685000Y-140033647D01*
X96688314Y-140000000D01*
X96675088Y-139865717D01*
X96635919Y-139736594D01*
X96572312Y-139617593D01*
X96486711Y-139513289D01*
X96382407Y-139427688D01*
X96263406Y-139364081D01*
X96134283Y-139324912D01*
X96033647Y-139315000D01*
X96000000Y-139311686D01*
X95966353Y-139315000D01*
X65033647Y-139315000D01*
X65000000Y-139311686D01*
X64966353Y-139315000D01*
X64865717Y-139324912D01*
X64736594Y-139364081D01*
X64617593Y-139427688D01*
X64513289Y-139513289D01*
X64427688Y-139617593D01*
X64364081Y-139736594D01*
X64324912Y-139865717D01*
X64311686Y-140000000D01*
X64315001Y-140033657D01*
X64315000Y-151315000D01*
X57685000Y-151315000D01*
X57685000Y-143779872D01*
X57765000Y-143779872D01*
X57765000Y-144220128D01*
X57850890Y-144651925D01*
X58019369Y-145058669D01*
X58263962Y-145424729D01*
X58575271Y-145736038D01*
X58941331Y-145980631D01*
X59348075Y-146149110D01*
X59779872Y-146235000D01*
X60220128Y-146235000D01*
X60651925Y-146149110D01*
X61058669Y-145980631D01*
X61424729Y-145736038D01*
X61736038Y-145424729D01*
X61980631Y-145058669D01*
X62149110Y-144651925D01*
X62235000Y-144220128D01*
X62235000Y-143779872D01*
X62149110Y-143348075D01*
X61980631Y-142941331D01*
X61736038Y-142575271D01*
X61424729Y-142263962D01*
X61058669Y-142019369D01*
X60651925Y-141850890D01*
X60220128Y-141765000D01*
X59779872Y-141765000D01*
X59348075Y-141850890D01*
X58941331Y-142019369D01*
X58575271Y-142263962D01*
X58263962Y-142575271D01*
X58019369Y-142941331D01*
X57850890Y-143348075D01*
X57765000Y-143779872D01*
X57685000Y-143779872D01*
X57685000Y-136530000D01*
X80431928Y-136530000D01*
X80444188Y-136654482D01*
X80480498Y-136774180D01*
X80539463Y-136884494D01*
X80618815Y-136981185D01*
X80715506Y-137060537D01*
X80825820Y-137119502D01*
X80945518Y-137155812D01*
X81070000Y-137168072D01*
X81634250Y-137165000D01*
X81793000Y-137006250D01*
X81793000Y-135807000D01*
X80593750Y-135807000D01*
X80435000Y-135965750D01*
X80431928Y-136530000D01*
X57685000Y-136530000D01*
X57685000Y-102518665D01*
X65245000Y-102518665D01*
X65245000Y-102801335D01*
X65300147Y-103078574D01*
X65408320Y-103339727D01*
X65565363Y-103574759D01*
X65765241Y-103774637D01*
X65920001Y-103878044D01*
X65920000Y-111601956D01*
X65765241Y-111705363D01*
X65565363Y-111905241D01*
X65408320Y-112140273D01*
X65300147Y-112401426D01*
X65245000Y-112678665D01*
X65245000Y-112961335D01*
X65300147Y-113238574D01*
X65408320Y-113499727D01*
X65565363Y-113734759D01*
X65765241Y-113934637D01*
X66000273Y-114091680D01*
X66261426Y-114199853D01*
X66538665Y-114255000D01*
X66821335Y-114255000D01*
X67098574Y-114199853D01*
X67359727Y-114091680D01*
X67496936Y-114000000D01*
X69736324Y-114000000D01*
X69740001Y-114037332D01*
X69740000Y-121682678D01*
X69736324Y-121720000D01*
X69740000Y-121757322D01*
X69740000Y-121757332D01*
X69750997Y-121868985D01*
X69794454Y-122012246D01*
X69865026Y-122144276D01*
X69904871Y-122192826D01*
X69959999Y-122260001D01*
X69989003Y-122283804D01*
X81900198Y-134195000D01*
X81792998Y-134195000D01*
X81792998Y-134353748D01*
X81634250Y-134195000D01*
X81070000Y-134191928D01*
X80945518Y-134204188D01*
X80825820Y-134240498D01*
X80715506Y-134299463D01*
X80618815Y-134378815D01*
X80539463Y-134475506D01*
X80480498Y-134585820D01*
X80444188Y-134705518D01*
X80431928Y-134830000D01*
X80435000Y-135394250D01*
X80593750Y-135553000D01*
X81793000Y-135553000D01*
X81793000Y-135533000D01*
X82047000Y-135533000D01*
X82047000Y-135553000D01*
X82067000Y-135553000D01*
X82067000Y-135807000D01*
X82047000Y-135807000D01*
X82047000Y-137006250D01*
X82205750Y-137165000D01*
X82770000Y-137168072D01*
X82894482Y-137155812D01*
X83014180Y-137119502D01*
X83124494Y-137060537D01*
X83221185Y-136981185D01*
X83300537Y-136884494D01*
X83359502Y-136774180D01*
X83381513Y-136701620D01*
X83513368Y-136833475D01*
X83756589Y-136995990D01*
X84026842Y-137107932D01*
X84313740Y-137165000D01*
X84606260Y-137165000D01*
X84893158Y-137107932D01*
X85163411Y-136995990D01*
X85406632Y-136833475D01*
X85613475Y-136626632D01*
X85730000Y-136452240D01*
X85846525Y-136626632D01*
X86053368Y-136833475D01*
X86296589Y-136995990D01*
X86566842Y-137107932D01*
X86853740Y-137165000D01*
X87146260Y-137165000D01*
X87433158Y-137107932D01*
X87703411Y-136995990D01*
X87946632Y-136833475D01*
X88153475Y-136626632D01*
X88270000Y-136452240D01*
X88386525Y-136626632D01*
X88593368Y-136833475D01*
X88836589Y-136995990D01*
X89106842Y-137107932D01*
X89393740Y-137165000D01*
X89686260Y-137165000D01*
X89973158Y-137107932D01*
X90243411Y-136995990D01*
X90486632Y-136833475D01*
X90693475Y-136626632D01*
X90810000Y-136452240D01*
X90926525Y-136626632D01*
X91133368Y-136833475D01*
X91376589Y-136995990D01*
X91646842Y-137107932D01*
X91933740Y-137165000D01*
X92226260Y-137165000D01*
X92513158Y-137107932D01*
X92783411Y-136995990D01*
X93026632Y-136833475D01*
X93233475Y-136626632D01*
X93350000Y-136452240D01*
X93466525Y-136626632D01*
X93673368Y-136833475D01*
X93916589Y-136995990D01*
X94186842Y-137107932D01*
X94473740Y-137165000D01*
X94766260Y-137165000D01*
X95053158Y-137107932D01*
X95323411Y-136995990D01*
X95566632Y-136833475D01*
X95773475Y-136626632D01*
X95935990Y-136383411D01*
X96047932Y-136113158D01*
X96105000Y-135826260D01*
X96105000Y-135533740D01*
X96047932Y-135246842D01*
X95935990Y-134976589D01*
X95773475Y-134733368D01*
X95566632Y-134526525D01*
X95421350Y-134429451D01*
X111514004Y-118336798D01*
X111543001Y-118313001D01*
X111637974Y-118197276D01*
X111708546Y-118065247D01*
X111752003Y-117921986D01*
X111763000Y-117810333D01*
X111763000Y-117810325D01*
X111766676Y-117773000D01*
X111763000Y-117735675D01*
X111763000Y-114000322D01*
X111766676Y-113962999D01*
X111763000Y-113925676D01*
X111763000Y-113925667D01*
X111752003Y-113814014D01*
X111708546Y-113670753D01*
X111637974Y-113538724D01*
X111543001Y-113422999D01*
X111514003Y-113399201D01*
X97920000Y-99805199D01*
X97920000Y-93718043D01*
X98074759Y-93614637D01*
X98274637Y-93414759D01*
X98431680Y-93179727D01*
X98539853Y-92918574D01*
X98595000Y-92641335D01*
X98595000Y-92358665D01*
X98539853Y-92081426D01*
X98431680Y-91820273D01*
X98274637Y-91585241D01*
X98074759Y-91385363D01*
X97839727Y-91228320D01*
X97578574Y-91120147D01*
X97301335Y-91065000D01*
X97018665Y-91065000D01*
X96741426Y-91120147D01*
X96480273Y-91228320D01*
X96245241Y-91385363D01*
X96045363Y-91585241D01*
X95941957Y-91740000D01*
X94680802Y-91740000D01*
X87690804Y-84750003D01*
X87667001Y-84720999D01*
X87551276Y-84626026D01*
X87419247Y-84555454D01*
X87275986Y-84511997D01*
X87164333Y-84501000D01*
X87164322Y-84501000D01*
X87127000Y-84497324D01*
X87089678Y-84501000D01*
X84116322Y-84501000D01*
X84078999Y-84497324D01*
X84041676Y-84501000D01*
X84041667Y-84501000D01*
X83930014Y-84511997D01*
X83786753Y-84555454D01*
X83654723Y-84626026D01*
X83571083Y-84694668D01*
X83538999Y-84720999D01*
X83515201Y-84749997D01*
X82540606Y-85724592D01*
X82471807Y-85687818D01*
X82201308Y-85605764D01*
X81920000Y-85578057D01*
X81638691Y-85605764D01*
X81368192Y-85687818D01*
X81118899Y-85821068D01*
X80900392Y-86000393D01*
X80721068Y-86218900D01*
X80652735Y-86346742D01*
X80502601Y-86117161D01*
X80304895Y-85915500D01*
X80071646Y-85756285D01*
X79811818Y-85645633D01*
X79729039Y-85628096D01*
X79507000Y-85750085D01*
X79507000Y-87293000D01*
X79527000Y-87293000D01*
X79527000Y-87547000D01*
X79507000Y-87547000D01*
X79507000Y-87567000D01*
X79253000Y-87567000D01*
X79253000Y-87547000D01*
X79233000Y-87547000D01*
X79233000Y-87293000D01*
X79253000Y-87293000D01*
X79253000Y-85750085D01*
X79030961Y-85628096D01*
X78948182Y-85645633D01*
X78688354Y-85756285D01*
X78455105Y-85915500D01*
X78257399Y-86117161D01*
X78107265Y-86346741D01*
X78038932Y-86218899D01*
X77859607Y-86000392D01*
X77641100Y-85821068D01*
X77391807Y-85687818D01*
X77121308Y-85605764D01*
X76840000Y-85578057D01*
X76558691Y-85605764D01*
X76288192Y-85687818D01*
X76038899Y-85821068D01*
X75820392Y-86000393D01*
X75641068Y-86218900D01*
X75507818Y-86468193D01*
X75425764Y-86738692D01*
X75405000Y-86949509D01*
X75405000Y-87704198D01*
X73934999Y-86234198D01*
X73934999Y-79927000D01*
X75405000Y-79927000D01*
X75405000Y-80327000D01*
X75457350Y-80604514D01*
X75562834Y-80866483D01*
X75717399Y-81102839D01*
X75915105Y-81304500D01*
X76148354Y-81463715D01*
X76408182Y-81574367D01*
X76490961Y-81591904D01*
X76713000Y-81469915D01*
X76713000Y-79927000D01*
X75405000Y-79927000D01*
X73934999Y-79927000D01*
X73934999Y-79273000D01*
X75405000Y-79273000D01*
X75405000Y-79673000D01*
X76713000Y-79673000D01*
X76713000Y-78130085D01*
X76490961Y-78008096D01*
X76408182Y-78025633D01*
X76148354Y-78136285D01*
X75915105Y-78295500D01*
X75717399Y-78497161D01*
X75562834Y-78733517D01*
X75457350Y-78995486D01*
X75405000Y-79273000D01*
X73934999Y-79273000D01*
X73934999Y-76110509D01*
X74158665Y-76155000D01*
X74441335Y-76155000D01*
X74718574Y-76099853D01*
X74979727Y-75991680D01*
X75214759Y-75834637D01*
X75414637Y-75634759D01*
X75518043Y-75480000D01*
X78161957Y-75480000D01*
X78265363Y-75634759D01*
X78465241Y-75834637D01*
X78620001Y-75938044D01*
X78620000Y-78179099D01*
X78578899Y-78201068D01*
X78360392Y-78380393D01*
X78181068Y-78598900D01*
X78112735Y-78726742D01*
X77962601Y-78497161D01*
X77764895Y-78295500D01*
X77531646Y-78136285D01*
X77271818Y-78025633D01*
X77189039Y-78008096D01*
X76967000Y-78130085D01*
X76967000Y-79673000D01*
X76987000Y-79673000D01*
X76987000Y-79927000D01*
X76967000Y-79927000D01*
X76967000Y-81469915D01*
X77189039Y-81591904D01*
X77271818Y-81574367D01*
X77531646Y-81463715D01*
X77764895Y-81304500D01*
X77962601Y-81102839D01*
X78112735Y-80873259D01*
X78181068Y-81001101D01*
X78360393Y-81219608D01*
X78578900Y-81398932D01*
X78828193Y-81532182D01*
X79098692Y-81614236D01*
X79380000Y-81641943D01*
X79661309Y-81614236D01*
X79931808Y-81532182D01*
X80181101Y-81398932D01*
X80399608Y-81219608D01*
X80578932Y-81001101D01*
X80650000Y-80868142D01*
X80721068Y-81001101D01*
X80900393Y-81219608D01*
X81118900Y-81398932D01*
X81368193Y-81532182D01*
X81638692Y-81614236D01*
X81920000Y-81641943D01*
X82201309Y-81614236D01*
X82471808Y-81532182D01*
X82721101Y-81398932D01*
X82939608Y-81219608D01*
X83118932Y-81001101D01*
X83190000Y-80868142D01*
X83261068Y-81001101D01*
X83440393Y-81219608D01*
X83658900Y-81398932D01*
X83908193Y-81532182D01*
X84178692Y-81614236D01*
X84460000Y-81641943D01*
X84741309Y-81614236D01*
X85011808Y-81532182D01*
X85261101Y-81398932D01*
X85479608Y-81219608D01*
X85658932Y-81001101D01*
X85792182Y-80751808D01*
X85874236Y-80481309D01*
X85895000Y-80270491D01*
X85895000Y-79329508D01*
X85874236Y-79118691D01*
X85792182Y-78848192D01*
X85658932Y-78598899D01*
X85479607Y-78380392D01*
X85261100Y-78201068D01*
X85011807Y-78067818D01*
X84741308Y-77985764D01*
X84460000Y-77958057D01*
X84178691Y-77985764D01*
X83908192Y-78067818D01*
X83658899Y-78201068D01*
X83440392Y-78380393D01*
X83261068Y-78598900D01*
X83190000Y-78731858D01*
X83118932Y-78598899D01*
X82939607Y-78380392D01*
X82721100Y-78201068D01*
X82680000Y-78179100D01*
X82680000Y-74578665D01*
X83025000Y-74578665D01*
X83025000Y-74861335D01*
X83080147Y-75138574D01*
X83188320Y-75399727D01*
X83345363Y-75634759D01*
X83545241Y-75834637D01*
X83780273Y-75991680D01*
X84041426Y-76099853D01*
X84318665Y-76155000D01*
X84601335Y-76155000D01*
X84878574Y-76099853D01*
X85139727Y-75991680D01*
X85374759Y-75834637D01*
X85574637Y-75634759D01*
X85731680Y-75399727D01*
X85839853Y-75138574D01*
X85895000Y-74861335D01*
X85895000Y-74578665D01*
X88105000Y-74578665D01*
X88105000Y-74861335D01*
X88160147Y-75138574D01*
X88268320Y-75399727D01*
X88425363Y-75634759D01*
X88625241Y-75834637D01*
X88860273Y-75991680D01*
X89121426Y-76099853D01*
X89398665Y-76155000D01*
X89681335Y-76155000D01*
X89863887Y-76118688D01*
X100464000Y-86718802D01*
X100464001Y-96791666D01*
X100460324Y-96828998D01*
X100474998Y-96977983D01*
X100518454Y-97121244D01*
X100589026Y-97253274D01*
X100656559Y-97335562D01*
X100684000Y-97368999D01*
X100712998Y-97392797D01*
X109385578Y-106065378D01*
X109353919Y-106071675D01*
X109038169Y-106202463D01*
X108754002Y-106392337D01*
X108512337Y-106634002D01*
X108322463Y-106918169D01*
X108191675Y-107233919D01*
X108125000Y-107569117D01*
X108125000Y-107910883D01*
X108191675Y-108246081D01*
X108322463Y-108561831D01*
X108512337Y-108845998D01*
X108754002Y-109087663D01*
X109038169Y-109277537D01*
X109353919Y-109408325D01*
X109689117Y-109475000D01*
X110030883Y-109475000D01*
X110366081Y-109408325D01*
X110681831Y-109277537D01*
X110965998Y-109087663D01*
X111207663Y-108845998D01*
X111397537Y-108561831D01*
X111528325Y-108246081D01*
X111534622Y-108214422D01*
X117352998Y-114032798D01*
X117352998Y-114083748D01*
X117194250Y-113925000D01*
X116680000Y-113921928D01*
X116555518Y-113934188D01*
X116435820Y-113970498D01*
X116325506Y-114029463D01*
X116228815Y-114108815D01*
X116149463Y-114205506D01*
X116090498Y-114315820D01*
X116061339Y-114411943D01*
X115894759Y-114245363D01*
X115659727Y-114088320D01*
X115398574Y-113980147D01*
X115121335Y-113925000D01*
X114838665Y-113925000D01*
X114561426Y-113980147D01*
X114300273Y-114088320D01*
X114065241Y-114245363D01*
X113865363Y-114445241D01*
X113708320Y-114680273D01*
X113600147Y-114941426D01*
X113545000Y-115218665D01*
X113545000Y-115501335D01*
X113600147Y-115778574D01*
X113708320Y-116039727D01*
X113865363Y-116274759D01*
X114065241Y-116474637D01*
X114300273Y-116631680D01*
X114561426Y-116739853D01*
X114838665Y-116795000D01*
X115121335Y-116795000D01*
X115398574Y-116739853D01*
X115659727Y-116631680D01*
X115894759Y-116474637D01*
X116061339Y-116308057D01*
X116090498Y-116404180D01*
X116149463Y-116514494D01*
X116228815Y-116611185D01*
X116325506Y-116690537D01*
X116435820Y-116749502D01*
X116555518Y-116785812D01*
X116680000Y-116798072D01*
X117194250Y-116795000D01*
X117353000Y-116636250D01*
X117353000Y-115487000D01*
X117333000Y-115487000D01*
X117333000Y-115233000D01*
X117353000Y-115233000D01*
X117353000Y-115213000D01*
X117607000Y-115213000D01*
X117607000Y-115233000D01*
X117627000Y-115233000D01*
X117627000Y-115487000D01*
X117607000Y-115487000D01*
X117607000Y-116636250D01*
X117765750Y-116795000D01*
X117895001Y-116795772D01*
X117895002Y-126570196D01*
X101729003Y-142736196D01*
X101699999Y-142759999D01*
X101644871Y-142827174D01*
X101605026Y-142875724D01*
X101569958Y-142941331D01*
X101534454Y-143007754D01*
X101490997Y-143151015D01*
X101480000Y-143262668D01*
X101480000Y-143262678D01*
X101476324Y-143300000D01*
X101480000Y-143337323D01*
X101480000Y-144309727D01*
X101399821Y-144352583D01*
X101172615Y-144539047D01*
X101159502Y-144495820D01*
X101100537Y-144385506D01*
X101021185Y-144288815D01*
X100924494Y-144209463D01*
X100814180Y-144150498D01*
X100694482Y-144114188D01*
X100570000Y-144101928D01*
X99985750Y-144105000D01*
X99827000Y-144263750D01*
X99827000Y-145713000D01*
X99847000Y-145713000D01*
X99847000Y-145967000D01*
X99827000Y-145967000D01*
X99827000Y-147416250D01*
X99985750Y-147575000D01*
X100570000Y-147578072D01*
X100694482Y-147565812D01*
X100814180Y-147529502D01*
X100924494Y-147470537D01*
X101021185Y-147391185D01*
X101100537Y-147294494D01*
X101159502Y-147184180D01*
X101172615Y-147140953D01*
X101399822Y-147327417D01*
X101661276Y-147467166D01*
X101944969Y-147553224D01*
X102240000Y-147582282D01*
X102535032Y-147553224D01*
X102818725Y-147467166D01*
X103080179Y-147327417D01*
X103309345Y-147139345D01*
X103472943Y-146940000D01*
X108351928Y-146940000D01*
X108364188Y-147064482D01*
X108400498Y-147184180D01*
X108459463Y-147294494D01*
X108538815Y-147391185D01*
X108635506Y-147470537D01*
X108745820Y-147529502D01*
X108865518Y-147565812D01*
X108990000Y-147578072D01*
X109574250Y-147575000D01*
X109733000Y-147416250D01*
X109733000Y-145967000D01*
X108513750Y-145967000D01*
X108355000Y-146125750D01*
X108351928Y-146940000D01*
X103472943Y-146940000D01*
X103497417Y-146910179D01*
X103637166Y-146648724D01*
X103723224Y-146365031D01*
X103745000Y-146143935D01*
X103745000Y-145536064D01*
X103723224Y-145314968D01*
X103637166Y-145031275D01*
X103497417Y-144769821D01*
X103472944Y-144740000D01*
X108351928Y-144740000D01*
X108355000Y-145554250D01*
X108513750Y-145713000D01*
X109733000Y-145713000D01*
X109733000Y-144263750D01*
X109574250Y-144105000D01*
X108990000Y-144101928D01*
X108865518Y-144114188D01*
X108745820Y-144150498D01*
X108635506Y-144209463D01*
X108538815Y-144288815D01*
X108459463Y-144385506D01*
X108400498Y-144495820D01*
X108364188Y-144615518D01*
X108351928Y-144740000D01*
X103472944Y-144740000D01*
X103309345Y-144540655D01*
X103080178Y-144352583D01*
X103000000Y-144309727D01*
X103000000Y-143614801D01*
X111640000Y-134974801D01*
X111640001Y-144309726D01*
X111559821Y-144352583D01*
X111332615Y-144539047D01*
X111319502Y-144495820D01*
X111260537Y-144385506D01*
X111181185Y-144288815D01*
X111084494Y-144209463D01*
X110974180Y-144150498D01*
X110854482Y-144114188D01*
X110730000Y-144101928D01*
X110145750Y-144105000D01*
X109987000Y-144263750D01*
X109987000Y-145713000D01*
X110007000Y-145713000D01*
X110007000Y-145967000D01*
X109987000Y-145967000D01*
X109987000Y-147416250D01*
X110145750Y-147575000D01*
X110730000Y-147578072D01*
X110854482Y-147565812D01*
X110974180Y-147529502D01*
X111084494Y-147470537D01*
X111181185Y-147391185D01*
X111260537Y-147294494D01*
X111319502Y-147184180D01*
X111332615Y-147140953D01*
X111559822Y-147327417D01*
X111821276Y-147467166D01*
X112104969Y-147553224D01*
X112400000Y-147582282D01*
X112695032Y-147553224D01*
X112978725Y-147467166D01*
X113240179Y-147327417D01*
X113469345Y-147139345D01*
X113657417Y-146910179D01*
X113797166Y-146648724D01*
X113883224Y-146365031D01*
X113905000Y-146143935D01*
X113905000Y-145536064D01*
X113883224Y-145314968D01*
X113797166Y-145031275D01*
X113657417Y-144769821D01*
X113469345Y-144540655D01*
X113240178Y-144352583D01*
X113160000Y-144309727D01*
X113160000Y-143779872D01*
X117765000Y-143779872D01*
X117765000Y-144220128D01*
X117850890Y-144651925D01*
X118019369Y-145058669D01*
X118263962Y-145424729D01*
X118575271Y-145736038D01*
X118941331Y-145980631D01*
X119348075Y-146149110D01*
X119779872Y-146235000D01*
X120220128Y-146235000D01*
X120651925Y-146149110D01*
X121058669Y-145980631D01*
X121424729Y-145736038D01*
X121736038Y-145424729D01*
X121980631Y-145058669D01*
X122149110Y-144651925D01*
X122235000Y-144220128D01*
X122235000Y-143779872D01*
X122149110Y-143348075D01*
X121980631Y-142941331D01*
X121736038Y-142575271D01*
X121424729Y-142263962D01*
X121058669Y-142019369D01*
X120651925Y-141850890D01*
X120220128Y-141765000D01*
X119779872Y-141765000D01*
X119348075Y-141850890D01*
X118941331Y-142019369D01*
X118575271Y-142263962D01*
X118263962Y-142575271D01*
X118019369Y-142941331D01*
X117850890Y-143348075D01*
X117765000Y-143779872D01*
X113160000Y-143779872D01*
X113160000Y-134343801D01*
X119616019Y-127887784D01*
X119645012Y-127863990D01*
X119668806Y-127834997D01*
X119668810Y-127834993D01*
X119739984Y-127748266D01*
X119739985Y-127748265D01*
X119810557Y-127616236D01*
X119854014Y-127472975D01*
X119865011Y-127361322D01*
X119865011Y-127361313D01*
X119868687Y-127323990D01*
X119865011Y-127286667D01*
X119865011Y-114110924D01*
X119868687Y-114073599D01*
X119865011Y-114036274D01*
X119865011Y-114036266D01*
X119854014Y-113924613D01*
X119810557Y-113781352D01*
X119739985Y-113649323D01*
X119645012Y-113533598D01*
X119616015Y-113509801D01*
X112746214Y-106640000D01*
X115741928Y-106640000D01*
X115741928Y-108840000D01*
X115754188Y-108964482D01*
X115790498Y-109084180D01*
X115849463Y-109194494D01*
X115928815Y-109291185D01*
X116025506Y-109370537D01*
X116135820Y-109429502D01*
X116255518Y-109465812D01*
X116380000Y-109478072D01*
X118580000Y-109478072D01*
X118704482Y-109465812D01*
X118824180Y-109429502D01*
X118934494Y-109370537D01*
X119031185Y-109291185D01*
X119110537Y-109194494D01*
X119169502Y-109084180D01*
X119205812Y-108964482D01*
X119218072Y-108840000D01*
X119218072Y-106640000D01*
X119205812Y-106515518D01*
X119169502Y-106395820D01*
X119110537Y-106285506D01*
X119031185Y-106188815D01*
X118934494Y-106109463D01*
X118824180Y-106050498D01*
X118704482Y-106014188D01*
X118580000Y-106001928D01*
X116380000Y-106001928D01*
X116255518Y-106014188D01*
X116135820Y-106050498D01*
X116025506Y-106109463D01*
X115928815Y-106188815D01*
X115849463Y-106285506D01*
X115790498Y-106395820D01*
X115754188Y-106515518D01*
X115741928Y-106640000D01*
X112746214Y-106640000D01*
X102492000Y-96385787D01*
X102492000Y-94176400D01*
X110898328Y-94176400D01*
X110898328Y-95903600D01*
X110910588Y-96028082D01*
X110946898Y-96147780D01*
X111005863Y-96258094D01*
X111085215Y-96354785D01*
X111181906Y-96434137D01*
X111292220Y-96493102D01*
X111411918Y-96529412D01*
X111536400Y-96541672D01*
X113263600Y-96541672D01*
X113388082Y-96529412D01*
X113507780Y-96493102D01*
X113618094Y-96434137D01*
X113714785Y-96354785D01*
X113794137Y-96258094D01*
X113853102Y-96147780D01*
X113870636Y-96089977D01*
X113984698Y-96204039D01*
X114230147Y-96368042D01*
X114502875Y-96481010D01*
X114792401Y-96538600D01*
X115087599Y-96538600D01*
X115377125Y-96481010D01*
X115649853Y-96368042D01*
X115895302Y-96204039D01*
X116104039Y-95995302D01*
X116268042Y-95749853D01*
X116381010Y-95477125D01*
X116438600Y-95187599D01*
X116438600Y-94892401D01*
X116381010Y-94602875D01*
X116268042Y-94330147D01*
X116104039Y-94084698D01*
X115895302Y-93875961D01*
X115729897Y-93765441D01*
X115828488Y-93706817D01*
X116046854Y-93510293D01*
X116222684Y-93274944D01*
X116349222Y-93009814D01*
X116394958Y-92859026D01*
X116273817Y-92627000D01*
X115067000Y-92627000D01*
X115067000Y-92647000D01*
X114813000Y-92647000D01*
X114813000Y-92627000D01*
X112527000Y-92627000D01*
X112527000Y-92647000D01*
X112273000Y-92647000D01*
X112273000Y-92627000D01*
X111066183Y-92627000D01*
X110945042Y-92859026D01*
X110990778Y-93009814D01*
X111117316Y-93274944D01*
X111293146Y-93510293D01*
X111356574Y-93567376D01*
X111292220Y-93586898D01*
X111181906Y-93645863D01*
X111085215Y-93725215D01*
X111005863Y-93821906D01*
X110946898Y-93932220D01*
X110910588Y-94051918D01*
X110898328Y-94176400D01*
X102492000Y-94176400D01*
X102492000Y-90319026D01*
X110945042Y-90319026D01*
X110990778Y-90469814D01*
X111117316Y-90734944D01*
X111293146Y-90970293D01*
X111511512Y-91166817D01*
X111617770Y-91230000D01*
X111511512Y-91293183D01*
X111293146Y-91489707D01*
X111117316Y-91725056D01*
X110990778Y-91990186D01*
X110945042Y-92140974D01*
X111066183Y-92373000D01*
X112273000Y-92373000D01*
X112273000Y-90087000D01*
X112527000Y-90087000D01*
X112527000Y-92373000D01*
X114813000Y-92373000D01*
X114813000Y-90087000D01*
X115067000Y-90087000D01*
X115067000Y-92373000D01*
X116273817Y-92373000D01*
X116394958Y-92140974D01*
X116349222Y-91990186D01*
X116222684Y-91725056D01*
X116046854Y-91489707D01*
X115828488Y-91293183D01*
X115722230Y-91230000D01*
X115828488Y-91166817D01*
X116046854Y-90970293D01*
X116222684Y-90734944D01*
X116349222Y-90469814D01*
X116394958Y-90319026D01*
X116273817Y-90087000D01*
X115067000Y-90087000D01*
X114813000Y-90087000D01*
X112527000Y-90087000D01*
X112273000Y-90087000D01*
X111066183Y-90087000D01*
X110945042Y-90319026D01*
X102492000Y-90319026D01*
X102492000Y-87779026D01*
X110945042Y-87779026D01*
X110990778Y-87929814D01*
X111117316Y-88194944D01*
X111293146Y-88430293D01*
X111511512Y-88626817D01*
X111617770Y-88690000D01*
X111511512Y-88753183D01*
X111293146Y-88949707D01*
X111117316Y-89185056D01*
X110990778Y-89450186D01*
X110945042Y-89600974D01*
X111066183Y-89833000D01*
X112273000Y-89833000D01*
X112273000Y-87547000D01*
X112527000Y-87547000D01*
X112527000Y-89833000D01*
X114813000Y-89833000D01*
X114813000Y-87547000D01*
X115067000Y-87547000D01*
X115067000Y-89833000D01*
X116273817Y-89833000D01*
X116394958Y-89600974D01*
X116349222Y-89450186D01*
X116222684Y-89185056D01*
X116046854Y-88949707D01*
X115828488Y-88753183D01*
X115722230Y-88690000D01*
X115828488Y-88626817D01*
X116046854Y-88430293D01*
X116222684Y-88194944D01*
X116349222Y-87929814D01*
X116394958Y-87779026D01*
X116273817Y-87547000D01*
X115067000Y-87547000D01*
X114813000Y-87547000D01*
X112527000Y-87547000D01*
X112273000Y-87547000D01*
X111066183Y-87547000D01*
X110945042Y-87779026D01*
X102492000Y-87779026D01*
X102492000Y-84732401D01*
X110901400Y-84732401D01*
X110901400Y-85027599D01*
X110958990Y-85317125D01*
X111071958Y-85589853D01*
X111235961Y-85835302D01*
X111444698Y-86044039D01*
X111610103Y-86154559D01*
X111511512Y-86213183D01*
X111293146Y-86409707D01*
X111117316Y-86645056D01*
X110990778Y-86910186D01*
X110945042Y-87060974D01*
X111066183Y-87293000D01*
X112273000Y-87293000D01*
X112273000Y-87273000D01*
X112527000Y-87273000D01*
X112527000Y-87293000D01*
X114813000Y-87293000D01*
X114813000Y-87273000D01*
X115067000Y-87273000D01*
X115067000Y-87293000D01*
X116273817Y-87293000D01*
X116394958Y-87060974D01*
X116349222Y-86910186D01*
X116222684Y-86645056D01*
X116046854Y-86409707D01*
X115828488Y-86213183D01*
X115729897Y-86154559D01*
X115895302Y-86044039D01*
X116104039Y-85835302D01*
X116268042Y-85589853D01*
X116381010Y-85317125D01*
X116438600Y-85027599D01*
X116438600Y-84732401D01*
X116381010Y-84442875D01*
X116268042Y-84170147D01*
X116104039Y-83924698D01*
X115895302Y-83715961D01*
X115649853Y-83551958D01*
X115377125Y-83438990D01*
X115087599Y-83381400D01*
X114792401Y-83381400D01*
X114502875Y-83438990D01*
X114230147Y-83551958D01*
X113984698Y-83715961D01*
X113775961Y-83924698D01*
X113670000Y-84083281D01*
X113564039Y-83924698D01*
X113355302Y-83715961D01*
X113109853Y-83551958D01*
X112837125Y-83438990D01*
X112547599Y-83381400D01*
X112252401Y-83381400D01*
X111962875Y-83438990D01*
X111690147Y-83551958D01*
X111444698Y-83715961D01*
X111235961Y-83924698D01*
X111071958Y-84170147D01*
X110958990Y-84442875D01*
X110901400Y-84732401D01*
X102492000Y-84732401D01*
X102492000Y-81869323D01*
X102495676Y-81832000D01*
X102492000Y-81794677D01*
X102492000Y-81794667D01*
X102481003Y-81683014D01*
X102437546Y-81539753D01*
X102366974Y-81407724D01*
X102272001Y-81291999D01*
X102243004Y-81268202D01*
X96018688Y-75043887D01*
X96055000Y-74861335D01*
X96055000Y-74578665D01*
X95999853Y-74301426D01*
X95891680Y-74040273D01*
X95734637Y-73805241D01*
X95534759Y-73605363D01*
X95299727Y-73448320D01*
X95038574Y-73340147D01*
X94761335Y-73285000D01*
X94478665Y-73285000D01*
X94201426Y-73340147D01*
X93940273Y-73448320D01*
X93705241Y-73605363D01*
X93505363Y-73805241D01*
X93348320Y-74040273D01*
X93240147Y-74301426D01*
X93185000Y-74578665D01*
X93185000Y-74861335D01*
X93240147Y-75138574D01*
X93348320Y-75399727D01*
X93505363Y-75634759D01*
X93705241Y-75834637D01*
X93940273Y-75991680D01*
X94201426Y-76099853D01*
X94478665Y-76155000D01*
X94761335Y-76155000D01*
X94943887Y-76118688D01*
X100972000Y-82146802D01*
X100972000Y-85077198D01*
X90938688Y-75043887D01*
X90975000Y-74861335D01*
X90975000Y-74578665D01*
X90919853Y-74301426D01*
X90811680Y-74040273D01*
X90654637Y-73805241D01*
X90454759Y-73605363D01*
X90219727Y-73448320D01*
X89958574Y-73340147D01*
X89681335Y-73285000D01*
X89398665Y-73285000D01*
X89121426Y-73340147D01*
X88860273Y-73448320D01*
X88625241Y-73605363D01*
X88425363Y-73805241D01*
X88268320Y-74040273D01*
X88160147Y-74301426D01*
X88105000Y-74578665D01*
X85895000Y-74578665D01*
X85839853Y-74301426D01*
X85731680Y-74040273D01*
X85574637Y-73805241D01*
X85374759Y-73605363D01*
X85174131Y-73471308D01*
X85201514Y-73456671D01*
X85273097Y-73212702D01*
X84460000Y-72399605D01*
X83646903Y-73212702D01*
X83718486Y-73456671D01*
X83747341Y-73470324D01*
X83545241Y-73605363D01*
X83345363Y-73805241D01*
X83188320Y-74040273D01*
X83080147Y-74301426D01*
X83025000Y-74578665D01*
X82680000Y-74578665D01*
X82680000Y-72290512D01*
X83019783Y-72290512D01*
X83061213Y-72570130D01*
X83156397Y-72836292D01*
X83223329Y-72961514D01*
X83467298Y-73033097D01*
X84280395Y-72220000D01*
X84639605Y-72220000D01*
X85452702Y-73033097D01*
X85696671Y-72961514D01*
X85817571Y-72706004D01*
X85886300Y-72431816D01*
X85900217Y-72149488D01*
X85858787Y-71869870D01*
X85763603Y-71603708D01*
X85696671Y-71478486D01*
X85452702Y-71406903D01*
X84639605Y-72220000D01*
X84280395Y-72220000D01*
X83467298Y-71406903D01*
X83223329Y-71478486D01*
X83102429Y-71733996D01*
X83033700Y-72008184D01*
X83019783Y-72290512D01*
X82680000Y-72290512D01*
X82680000Y-71227298D01*
X83646903Y-71227298D01*
X84460000Y-72040395D01*
X85273097Y-71227298D01*
X85229879Y-71080000D01*
X108121928Y-71080000D01*
X108121928Y-73280000D01*
X108134188Y-73404482D01*
X108170498Y-73524180D01*
X108229463Y-73634494D01*
X108308815Y-73731185D01*
X108405506Y-73810537D01*
X108515820Y-73869502D01*
X108635518Y-73905812D01*
X108760000Y-73918072D01*
X110960000Y-73918072D01*
X111084482Y-73905812D01*
X111204180Y-73869502D01*
X111314494Y-73810537D01*
X111411185Y-73731185D01*
X111490537Y-73634494D01*
X111549502Y-73524180D01*
X111585812Y-73404482D01*
X111598072Y-73280000D01*
X111598072Y-72009117D01*
X115745000Y-72009117D01*
X115745000Y-72350883D01*
X115811675Y-72686081D01*
X115942463Y-73001831D01*
X116132337Y-73285998D01*
X116374002Y-73527663D01*
X116658169Y-73717537D01*
X116973919Y-73848325D01*
X117309117Y-73915000D01*
X117650883Y-73915000D01*
X117986081Y-73848325D01*
X118301831Y-73717537D01*
X118585998Y-73527663D01*
X118827663Y-73285998D01*
X119017537Y-73001831D01*
X119148325Y-72686081D01*
X119215000Y-72350883D01*
X119215000Y-72009117D01*
X119148325Y-71673919D01*
X119017537Y-71358169D01*
X118827663Y-71074002D01*
X118585998Y-70832337D01*
X118301831Y-70642463D01*
X117986081Y-70511675D01*
X117650883Y-70445000D01*
X117309117Y-70445000D01*
X116973919Y-70511675D01*
X116658169Y-70642463D01*
X116374002Y-70832337D01*
X116132337Y-71074002D01*
X115942463Y-71358169D01*
X115811675Y-71673919D01*
X115745000Y-72009117D01*
X111598072Y-72009117D01*
X111598072Y-71080000D01*
X111585812Y-70955518D01*
X111549502Y-70835820D01*
X111490537Y-70725506D01*
X111411185Y-70628815D01*
X111314494Y-70549463D01*
X111204180Y-70490498D01*
X111084482Y-70454188D01*
X110960000Y-70441928D01*
X108760000Y-70441928D01*
X108635518Y-70454188D01*
X108515820Y-70490498D01*
X108405506Y-70549463D01*
X108308815Y-70628815D01*
X108229463Y-70725506D01*
X108170498Y-70835820D01*
X108134188Y-70955518D01*
X108121928Y-71080000D01*
X85229879Y-71080000D01*
X85201514Y-70983329D01*
X84946004Y-70862429D01*
X84671816Y-70793700D01*
X84389488Y-70779783D01*
X84109870Y-70821213D01*
X83843708Y-70916397D01*
X83718486Y-70983329D01*
X83646903Y-71227298D01*
X82680000Y-71227298D01*
X82680000Y-67394801D01*
X84754802Y-65320000D01*
X88321957Y-65320000D01*
X88425363Y-65474759D01*
X88625241Y-65674637D01*
X88860273Y-65831680D01*
X89121426Y-65939853D01*
X89398665Y-65995000D01*
X89681335Y-65995000D01*
X89958574Y-65939853D01*
X90219727Y-65831680D01*
X90454759Y-65674637D01*
X90654637Y-65474759D01*
X90758043Y-65320000D01*
X93401957Y-65320000D01*
X93505363Y-65474759D01*
X93705241Y-65674637D01*
X93940273Y-65831680D01*
X94201426Y-65939853D01*
X94478665Y-65995000D01*
X94761335Y-65995000D01*
X95038574Y-65939853D01*
X95299727Y-65831680D01*
X95534759Y-65674637D01*
X95734637Y-65474759D01*
X95891680Y-65239727D01*
X95999853Y-64978574D01*
X96055000Y-64701335D01*
X96055000Y-64418665D01*
X95999853Y-64141426D01*
X95891680Y-63880273D01*
X95811317Y-63760000D01*
X113501928Y-63760000D01*
X113501928Y-65360000D01*
X113514188Y-65484482D01*
X113550498Y-65604180D01*
X113609463Y-65714494D01*
X113688815Y-65811185D01*
X113785506Y-65890537D01*
X113895820Y-65949502D01*
X114015518Y-65985812D01*
X114140000Y-65998072D01*
X115740000Y-65998072D01*
X115864482Y-65985812D01*
X115984180Y-65949502D01*
X116094494Y-65890537D01*
X116191185Y-65811185D01*
X116270537Y-65714494D01*
X116329502Y-65604180D01*
X116345117Y-65552702D01*
X116626903Y-65552702D01*
X116698486Y-65796671D01*
X116953996Y-65917571D01*
X117228184Y-65986300D01*
X117510512Y-66000217D01*
X117790130Y-65958787D01*
X118056292Y-65863603D01*
X118181514Y-65796671D01*
X118253097Y-65552702D01*
X117440000Y-64739605D01*
X116626903Y-65552702D01*
X116345117Y-65552702D01*
X116365812Y-65484482D01*
X116378072Y-65360000D01*
X116378072Y-65352785D01*
X116447298Y-65373097D01*
X117260395Y-64560000D01*
X117619605Y-64560000D01*
X118432702Y-65373097D01*
X118676671Y-65301514D01*
X118797571Y-65046004D01*
X118866300Y-64771816D01*
X118880217Y-64489488D01*
X118838787Y-64209870D01*
X118743603Y-63943708D01*
X118676671Y-63818486D01*
X118432702Y-63746903D01*
X117619605Y-64560000D01*
X117260395Y-64560000D01*
X116447298Y-63746903D01*
X116378072Y-63767215D01*
X116378072Y-63760000D01*
X116365812Y-63635518D01*
X116345118Y-63567298D01*
X116626903Y-63567298D01*
X117440000Y-64380395D01*
X118253097Y-63567298D01*
X118181514Y-63323329D01*
X117926004Y-63202429D01*
X117651816Y-63133700D01*
X117369488Y-63119783D01*
X117089870Y-63161213D01*
X116823708Y-63256397D01*
X116698486Y-63323329D01*
X116626903Y-63567298D01*
X116345118Y-63567298D01*
X116329502Y-63515820D01*
X116270537Y-63405506D01*
X116191185Y-63308815D01*
X116094494Y-63229463D01*
X115984180Y-63170498D01*
X115864482Y-63134188D01*
X115740000Y-63121928D01*
X114140000Y-63121928D01*
X114015518Y-63134188D01*
X113895820Y-63170498D01*
X113785506Y-63229463D01*
X113688815Y-63308815D01*
X113609463Y-63405506D01*
X113550498Y-63515820D01*
X113514188Y-63635518D01*
X113501928Y-63760000D01*
X95811317Y-63760000D01*
X95734637Y-63645241D01*
X95534759Y-63445363D01*
X95299727Y-63288320D01*
X95038574Y-63180147D01*
X94761335Y-63125000D01*
X94478665Y-63125000D01*
X94201426Y-63180147D01*
X93940273Y-63288320D01*
X93705241Y-63445363D01*
X93505363Y-63645241D01*
X93401957Y-63800000D01*
X90758043Y-63800000D01*
X90654637Y-63645241D01*
X90454759Y-63445363D01*
X90219727Y-63288320D01*
X89958574Y-63180147D01*
X89681335Y-63125000D01*
X89398665Y-63125000D01*
X89121426Y-63180147D01*
X88860273Y-63288320D01*
X88625241Y-63445363D01*
X88425363Y-63645241D01*
X88321957Y-63800000D01*
X84477322Y-63800000D01*
X84439999Y-63796324D01*
X84402676Y-63800000D01*
X84402667Y-63800000D01*
X84291014Y-63810997D01*
X84147753Y-63854454D01*
X84015724Y-63925026D01*
X83899999Y-64019999D01*
X83876201Y-64048997D01*
X81910001Y-66015198D01*
X80778688Y-64883886D01*
X80815000Y-64701335D01*
X80815000Y-64418665D01*
X80759853Y-64141426D01*
X80651680Y-63880273D01*
X80494637Y-63645241D01*
X80294759Y-63445363D01*
X80059727Y-63288320D01*
X79798574Y-63180147D01*
X79521335Y-63125000D01*
X79238665Y-63125000D01*
X78961426Y-63180147D01*
X78700273Y-63288320D01*
X78465241Y-63445363D01*
X78265363Y-63645241D01*
X78108320Y-63880273D01*
X78000147Y-64141426D01*
X77945000Y-64418665D01*
X77945000Y-64701335D01*
X78000147Y-64978574D01*
X78108320Y-65239727D01*
X78265363Y-65474759D01*
X78465241Y-65674637D01*
X78700273Y-65831680D01*
X78961426Y-65939853D01*
X79238665Y-65995000D01*
X79521335Y-65995000D01*
X79703886Y-65958688D01*
X81160000Y-67414803D01*
X81160001Y-78179099D01*
X81118899Y-78201068D01*
X80900392Y-78380393D01*
X80721068Y-78598900D01*
X80650000Y-78731858D01*
X80578932Y-78598899D01*
X80399607Y-78380392D01*
X80181100Y-78201068D01*
X80140000Y-78179100D01*
X80140000Y-75938043D01*
X80294759Y-75834637D01*
X80494637Y-75634759D01*
X80651680Y-75399727D01*
X80759853Y-75138574D01*
X80815000Y-74861335D01*
X80815000Y-74578665D01*
X80759853Y-74301426D01*
X80651680Y-74040273D01*
X80494637Y-73805241D01*
X80294759Y-73605363D01*
X80059727Y-73448320D01*
X79798574Y-73340147D01*
X79521335Y-73285000D01*
X79238665Y-73285000D01*
X78961426Y-73340147D01*
X78700273Y-73448320D01*
X78465241Y-73605363D01*
X78265363Y-73805241D01*
X78161957Y-73960000D01*
X75518043Y-73960000D01*
X75414637Y-73805241D01*
X75214759Y-73605363D01*
X74979727Y-73448320D01*
X74718574Y-73340147D01*
X74441335Y-73285000D01*
X74158665Y-73285000D01*
X73934999Y-73329491D01*
X73934999Y-65999802D01*
X73976113Y-65958688D01*
X74158665Y-65995000D01*
X74441335Y-65995000D01*
X74718574Y-65939853D01*
X74979727Y-65831680D01*
X75214759Y-65674637D01*
X75414637Y-65474759D01*
X75571680Y-65239727D01*
X75679853Y-64978574D01*
X75735000Y-64701335D01*
X75735000Y-64418665D01*
X75679853Y-64141426D01*
X75571680Y-63880273D01*
X75414637Y-63645241D01*
X75214759Y-63445363D01*
X74979727Y-63288320D01*
X74718574Y-63180147D01*
X74441335Y-63125000D01*
X74158665Y-63125000D01*
X73881426Y-63180147D01*
X73620273Y-63288320D01*
X73385241Y-63445363D01*
X73185363Y-63645241D01*
X73028320Y-63880273D01*
X72920147Y-64141426D01*
X72865000Y-64418665D01*
X72865000Y-64701335D01*
X72901312Y-64883887D01*
X72664001Y-65121197D01*
X72634998Y-65145000D01*
X72609318Y-65176292D01*
X72540025Y-65260725D01*
X72469454Y-65392754D01*
X72469453Y-65392755D01*
X72425996Y-65536016D01*
X72414999Y-65647669D01*
X72414999Y-65647679D01*
X72411323Y-65685001D01*
X72414999Y-65722323D01*
X72415000Y-86511666D01*
X72411323Y-86548999D01*
X72415000Y-86586332D01*
X72417872Y-86615486D01*
X72425997Y-86697984D01*
X72469453Y-86841245D01*
X72540025Y-86973275D01*
X72558449Y-86995724D01*
X72634999Y-87089000D01*
X72663997Y-87112798D01*
X75057211Y-89506013D01*
X75081009Y-89535011D01*
X75110007Y-89558809D01*
X75196733Y-89629984D01*
X75328763Y-89700556D01*
X75472024Y-89744013D01*
X75583677Y-89755010D01*
X75583687Y-89755010D01*
X75621010Y-89758686D01*
X75658333Y-89755010D01*
X82847668Y-89755010D01*
X82884990Y-89758686D01*
X82922312Y-89755010D01*
X82922323Y-89755010D01*
X83033976Y-89744013D01*
X83177237Y-89700556D01*
X83309266Y-89629984D01*
X83424991Y-89535011D01*
X83448794Y-89506007D01*
X83696729Y-89258072D01*
X84348273Y-89258072D01*
X96479222Y-101389022D01*
X96245241Y-101545363D01*
X96045363Y-101745241D01*
X95888320Y-101980273D01*
X95780147Y-102241426D01*
X95725000Y-102518665D01*
X95725000Y-102801335D01*
X95780147Y-103078574D01*
X95888320Y-103339727D01*
X96045363Y-103574759D01*
X96245241Y-103774637D01*
X96400001Y-103878044D01*
X96400000Y-111601956D01*
X96245241Y-111705363D01*
X96045363Y-111905241D01*
X95888320Y-112140273D01*
X95780147Y-112401426D01*
X95725000Y-112678665D01*
X95725000Y-112961335D01*
X95780147Y-113238574D01*
X95888320Y-113499727D01*
X96045363Y-113734759D01*
X96245241Y-113934637D01*
X96480273Y-114091680D01*
X96741426Y-114199853D01*
X97018665Y-114255000D01*
X97301335Y-114255000D01*
X97578574Y-114199853D01*
X97839727Y-114091680D01*
X98074759Y-113934637D01*
X98274637Y-113734759D01*
X98431680Y-113499727D01*
X98539853Y-113238574D01*
X98595000Y-112961335D01*
X98595000Y-112678665D01*
X98539853Y-112401426D01*
X98431680Y-112140273D01*
X98274637Y-111905241D01*
X98074759Y-111705363D01*
X97920000Y-111601957D01*
X97920000Y-103878043D01*
X98074759Y-103774637D01*
X98274637Y-103574759D01*
X98430978Y-103340778D01*
X109740001Y-114649801D01*
X109740000Y-116945198D01*
X92446408Y-134238791D01*
X92226260Y-134195000D01*
X92099801Y-134195000D01*
X101011004Y-125283798D01*
X101040001Y-125260001D01*
X101134974Y-125144276D01*
X101205546Y-125012247D01*
X101249003Y-124868986D01*
X101260000Y-124757333D01*
X101260000Y-124757325D01*
X101263676Y-124720000D01*
X101260000Y-124682675D01*
X101260000Y-114794801D01*
X101836114Y-114218688D01*
X102018665Y-114255000D01*
X102301335Y-114255000D01*
X102578574Y-114199853D01*
X102839727Y-114091680D01*
X103074759Y-113934637D01*
X103274637Y-113734759D01*
X103431680Y-113499727D01*
X103539853Y-113238574D01*
X103595000Y-112961335D01*
X103595000Y-112678665D01*
X103539853Y-112401426D01*
X103431680Y-112140273D01*
X103274637Y-111905241D01*
X103074759Y-111705363D01*
X102839727Y-111548320D01*
X102578574Y-111440147D01*
X102301335Y-111385000D01*
X102018665Y-111385000D01*
X101741426Y-111440147D01*
X101480273Y-111548320D01*
X101245241Y-111705363D01*
X101045363Y-111905241D01*
X100888320Y-112140273D01*
X100780147Y-112401426D01*
X100725000Y-112678665D01*
X100725000Y-112961335D01*
X100761312Y-113143886D01*
X99988998Y-113916201D01*
X99960000Y-113939999D01*
X99936202Y-113968997D01*
X99936201Y-113968998D01*
X99865026Y-114055724D01*
X99794454Y-114187754D01*
X99750998Y-114331015D01*
X99736324Y-114480000D01*
X99740001Y-114517332D01*
X99740000Y-124405198D01*
X89906408Y-134238791D01*
X89686260Y-134195000D01*
X89393740Y-134195000D01*
X89106842Y-134252068D01*
X88836589Y-134364010D01*
X88593368Y-134526525D01*
X88386525Y-134733368D01*
X88270000Y-134907760D01*
X88153475Y-134733368D01*
X87946632Y-134526525D01*
X87703411Y-134364010D01*
X87433158Y-134252068D01*
X87146260Y-134195000D01*
X86853740Y-134195000D01*
X86633592Y-134238791D01*
X86260000Y-133865199D01*
X86260000Y-114554801D01*
X86596114Y-114218688D01*
X86778665Y-114255000D01*
X87061335Y-114255000D01*
X87338574Y-114199853D01*
X87599727Y-114091680D01*
X87834759Y-113934637D01*
X88034637Y-113734759D01*
X88191680Y-113499727D01*
X88299853Y-113238574D01*
X88355000Y-112961335D01*
X88355000Y-112678665D01*
X88299853Y-112401426D01*
X88191680Y-112140273D01*
X88034637Y-111905241D01*
X87834759Y-111705363D01*
X87599727Y-111548320D01*
X87338574Y-111440147D01*
X87061335Y-111385000D01*
X86778665Y-111385000D01*
X86501426Y-111440147D01*
X86240273Y-111548320D01*
X86005241Y-111705363D01*
X85805363Y-111905241D01*
X85648320Y-112140273D01*
X85540147Y-112401426D01*
X85485000Y-112678665D01*
X85485000Y-112961335D01*
X85521312Y-113143886D01*
X84988998Y-113676201D01*
X84960000Y-113699999D01*
X84936202Y-113728997D01*
X84936201Y-113728998D01*
X84865026Y-113815724D01*
X84794454Y-113947754D01*
X84778606Y-114000000D01*
X84750998Y-114091014D01*
X84741641Y-114186012D01*
X84736324Y-114240000D01*
X84740001Y-114277333D01*
X84740000Y-134142678D01*
X84736324Y-134180000D01*
X84740000Y-134217322D01*
X84740000Y-134217332D01*
X84740429Y-134221688D01*
X84606260Y-134195000D01*
X84313740Y-134195000D01*
X84093592Y-134238790D01*
X71260000Y-121405199D01*
X71260000Y-114314801D01*
X71356114Y-114218688D01*
X71538665Y-114255000D01*
X71821335Y-114255000D01*
X72098574Y-114199853D01*
X72359727Y-114091680D01*
X72594759Y-113934637D01*
X72794637Y-113734759D01*
X72951680Y-113499727D01*
X73059853Y-113238574D01*
X73115000Y-112961335D01*
X73115000Y-112678665D01*
X73059853Y-112401426D01*
X72951680Y-112140273D01*
X72794637Y-111905241D01*
X72594759Y-111705363D01*
X72359727Y-111548320D01*
X72098574Y-111440147D01*
X71821335Y-111385000D01*
X71538665Y-111385000D01*
X71261426Y-111440147D01*
X71000273Y-111548320D01*
X70765241Y-111705363D01*
X70565363Y-111905241D01*
X70408320Y-112140273D01*
X70300147Y-112401426D01*
X70245000Y-112678665D01*
X70245000Y-112961335D01*
X70281312Y-113143886D01*
X69988998Y-113436201D01*
X69960000Y-113459999D01*
X69936202Y-113488997D01*
X69936201Y-113488998D01*
X69865026Y-113575724D01*
X69794454Y-113707754D01*
X69781944Y-113748996D01*
X69750998Y-113851014D01*
X69743749Y-113924613D01*
X69736324Y-114000000D01*
X67496936Y-114000000D01*
X67594759Y-113934637D01*
X67794637Y-113734759D01*
X67951680Y-113499727D01*
X68059853Y-113238574D01*
X68115000Y-112961335D01*
X68115000Y-112678665D01*
X68059853Y-112401426D01*
X67951680Y-112140273D01*
X67794637Y-111905241D01*
X67594759Y-111705363D01*
X67440000Y-111601957D01*
X67440000Y-103878043D01*
X67594759Y-103774637D01*
X67794637Y-103574759D01*
X67951680Y-103339727D01*
X68059853Y-103078574D01*
X68115000Y-102801335D01*
X68115000Y-102518665D01*
X80485000Y-102518665D01*
X80485000Y-102801335D01*
X80540147Y-103078574D01*
X80648320Y-103339727D01*
X80805363Y-103574759D01*
X81005241Y-103774637D01*
X81160001Y-103878044D01*
X81160000Y-111601956D01*
X81005241Y-111705363D01*
X80805363Y-111905241D01*
X80648320Y-112140273D01*
X80540147Y-112401426D01*
X80485000Y-112678665D01*
X80485000Y-112961335D01*
X80540147Y-113238574D01*
X80648320Y-113499727D01*
X80805363Y-113734759D01*
X81005241Y-113934637D01*
X81240273Y-114091680D01*
X81501426Y-114199853D01*
X81778665Y-114255000D01*
X82061335Y-114255000D01*
X82338574Y-114199853D01*
X82599727Y-114091680D01*
X82834759Y-113934637D01*
X83034637Y-113734759D01*
X83191680Y-113499727D01*
X83299853Y-113238574D01*
X83355000Y-112961335D01*
X83355000Y-112678665D01*
X83299853Y-112401426D01*
X83191680Y-112140273D01*
X83034637Y-111905241D01*
X82834759Y-111705363D01*
X82680000Y-111601957D01*
X82680000Y-103878043D01*
X82834759Y-103774637D01*
X83034637Y-103574759D01*
X83191680Y-103339727D01*
X83299853Y-103078574D01*
X83355000Y-102801335D01*
X83355000Y-102518665D01*
X83299853Y-102241426D01*
X83191680Y-101980273D01*
X83034637Y-101745241D01*
X82834759Y-101545363D01*
X82599727Y-101388320D01*
X82338574Y-101280147D01*
X82061335Y-101225000D01*
X81778665Y-101225000D01*
X81501426Y-101280147D01*
X81240273Y-101388320D01*
X81005241Y-101545363D01*
X80805363Y-101745241D01*
X80648320Y-101980273D01*
X80540147Y-102241426D01*
X80485000Y-102518665D01*
X68115000Y-102518665D01*
X68059853Y-102241426D01*
X67951680Y-101980273D01*
X67794637Y-101745241D01*
X67594759Y-101545363D01*
X67359727Y-101388320D01*
X67098574Y-101280147D01*
X66821335Y-101225000D01*
X66538665Y-101225000D01*
X66261426Y-101280147D01*
X66000273Y-101388320D01*
X65765241Y-101545363D01*
X65565363Y-101745241D01*
X65408320Y-101980273D01*
X65300147Y-102241426D01*
X65245000Y-102518665D01*
X57685000Y-102518665D01*
X57685000Y-96032702D01*
X76026903Y-96032702D01*
X76098486Y-96276671D01*
X76353996Y-96397571D01*
X76628184Y-96466300D01*
X76910512Y-96480217D01*
X77190130Y-96438787D01*
X77456292Y-96343603D01*
X77581514Y-96276671D01*
X77653097Y-96032702D01*
X76840000Y-95219605D01*
X76026903Y-96032702D01*
X57685000Y-96032702D01*
X57685000Y-95110512D01*
X75399783Y-95110512D01*
X75441213Y-95390130D01*
X75536397Y-95656292D01*
X75603329Y-95781514D01*
X75847298Y-95853097D01*
X76660395Y-95040000D01*
X77019605Y-95040000D01*
X77832702Y-95853097D01*
X78076671Y-95781514D01*
X78197571Y-95526004D01*
X78266300Y-95251816D01*
X78280217Y-94969488D01*
X78238787Y-94689870D01*
X78143603Y-94423708D01*
X78076671Y-94298486D01*
X77832702Y-94226903D01*
X77019605Y-95040000D01*
X76660395Y-95040000D01*
X75847298Y-94226903D01*
X75603329Y-94298486D01*
X75482429Y-94553996D01*
X75413700Y-94828184D01*
X75399783Y-95110512D01*
X57685000Y-95110512D01*
X57685000Y-92358665D01*
X65245000Y-92358665D01*
X65245000Y-92641335D01*
X65300147Y-92918574D01*
X65408320Y-93179727D01*
X65565363Y-93414759D01*
X65765241Y-93614637D01*
X66000273Y-93771680D01*
X66261426Y-93879853D01*
X66538665Y-93935000D01*
X66821335Y-93935000D01*
X67098574Y-93879853D01*
X67359727Y-93771680D01*
X67594759Y-93614637D01*
X67794637Y-93414759D01*
X67951680Y-93179727D01*
X68059853Y-92918574D01*
X68115000Y-92641335D01*
X68115000Y-92358665D01*
X68078688Y-92176114D01*
X68129803Y-92124999D01*
X75459436Y-92124999D01*
X75405000Y-92398665D01*
X75405000Y-92681335D01*
X75460147Y-92958574D01*
X75568320Y-93219727D01*
X75725363Y-93454759D01*
X75925241Y-93654637D01*
X76125869Y-93788692D01*
X76098486Y-93803329D01*
X76026903Y-94047298D01*
X76840000Y-94860395D01*
X77653097Y-94047298D01*
X77581514Y-93803329D01*
X77552659Y-93789676D01*
X77754759Y-93654637D01*
X77954637Y-93454759D01*
X78111680Y-93219727D01*
X78219853Y-92958574D01*
X78275000Y-92681335D01*
X78275000Y-92398665D01*
X78220564Y-92124999D01*
X80470198Y-92124999D01*
X80521312Y-92176113D01*
X80485000Y-92358665D01*
X80485000Y-92641335D01*
X80540147Y-92918574D01*
X80648320Y-93179727D01*
X80805363Y-93414759D01*
X81005241Y-93614637D01*
X81240273Y-93771680D01*
X81501426Y-93879853D01*
X81778665Y-93935000D01*
X82061335Y-93935000D01*
X82338574Y-93879853D01*
X82599727Y-93771680D01*
X82834759Y-93614637D01*
X83034637Y-93414759D01*
X83191680Y-93179727D01*
X83299853Y-92918574D01*
X83355000Y-92641335D01*
X83355000Y-92358665D01*
X83299853Y-92081426D01*
X83191680Y-91820273D01*
X83034637Y-91585241D01*
X82834759Y-91385363D01*
X82599727Y-91228320D01*
X82338574Y-91120147D01*
X82061335Y-91065000D01*
X81778665Y-91065000D01*
X81596113Y-91101312D01*
X81348803Y-90854001D01*
X81325000Y-90824998D01*
X81209275Y-90730025D01*
X81077246Y-90659453D01*
X80933985Y-90615996D01*
X80822332Y-90604999D01*
X80822321Y-90604999D01*
X80784999Y-90601323D01*
X80747677Y-90604999D01*
X67852324Y-90604999D01*
X67815001Y-90601323D01*
X67777678Y-90604999D01*
X67777668Y-90604999D01*
X67666015Y-90615996D01*
X67522754Y-90659453D01*
X67390725Y-90730025D01*
X67275000Y-90824998D01*
X67251202Y-90853996D01*
X67003886Y-91101312D01*
X66821335Y-91065000D01*
X66538665Y-91065000D01*
X66261426Y-91120147D01*
X66000273Y-91228320D01*
X65765241Y-91385363D01*
X65565363Y-91585241D01*
X65408320Y-91820273D01*
X65300147Y-92081426D01*
X65245000Y-92358665D01*
X57685000Y-92358665D01*
X57685000Y-38779872D01*
X57765000Y-38779872D01*
X57765000Y-39220128D01*
X57850890Y-39651925D01*
X58019369Y-40058669D01*
X58263962Y-40424729D01*
X58575271Y-40736038D01*
X58941331Y-40980631D01*
X59348075Y-41149110D01*
X59779872Y-41235000D01*
X60220128Y-41235000D01*
X60651925Y-41149110D01*
X61058669Y-40980631D01*
X61424729Y-40736038D01*
X61736038Y-40424729D01*
X61980631Y-40058669D01*
X62149110Y-39651925D01*
X62235000Y-39220128D01*
X62235000Y-38779872D01*
X117765000Y-38779872D01*
X117765000Y-39220128D01*
X117850890Y-39651925D01*
X118019369Y-40058669D01*
X118263962Y-40424729D01*
X118575271Y-40736038D01*
X118941331Y-40980631D01*
X119348075Y-41149110D01*
X119779872Y-41235000D01*
X120220128Y-41235000D01*
X120651925Y-41149110D01*
X121058669Y-40980631D01*
X121424729Y-40736038D01*
X121736038Y-40424729D01*
X121980631Y-40058669D01*
X122149110Y-39651925D01*
X122235000Y-39220128D01*
X122235000Y-38779872D01*
X122149110Y-38348075D01*
X121980631Y-37941331D01*
X121736038Y-37575271D01*
X121424729Y-37263962D01*
X121058669Y-37019369D01*
X120651925Y-36850890D01*
X120220128Y-36765000D01*
X119779872Y-36765000D01*
X119348075Y-36850890D01*
X118941331Y-37019369D01*
X118575271Y-37263962D01*
X118263962Y-37575271D01*
X118019369Y-37941331D01*
X117850890Y-38348075D01*
X117765000Y-38779872D01*
X62235000Y-38779872D01*
X62149110Y-38348075D01*
X61980631Y-37941331D01*
X61736038Y-37575271D01*
X61424729Y-37263962D01*
X61058669Y-37019369D01*
X60651925Y-36850890D01*
X60220128Y-36765000D01*
X59779872Y-36765000D01*
X59348075Y-36850890D01*
X58941331Y-37019369D01*
X58575271Y-37263962D01*
X58263962Y-37575271D01*
X58019369Y-37941331D01*
X57850890Y-38348075D01*
X57765000Y-38779872D01*
X57685000Y-38779872D01*
X57685000Y-36685000D01*
X122315000Y-36685000D01*
X122315001Y-151315000D01*
%TA.AperFunction,Conductor*%
D24*
G36*
X122315001Y-151315000D02*
G01*
X96685000Y-151315000D01*
X96685000Y-146940000D01*
X98191928Y-146940000D01*
X98204188Y-147064482D01*
X98240498Y-147184180D01*
X98299463Y-147294494D01*
X98378815Y-147391185D01*
X98475506Y-147470537D01*
X98585820Y-147529502D01*
X98705518Y-147565812D01*
X98830000Y-147578072D01*
X99414250Y-147575000D01*
X99573000Y-147416250D01*
X99573000Y-145967000D01*
X98353750Y-145967000D01*
X98195000Y-146125750D01*
X98191928Y-146940000D01*
X96685000Y-146940000D01*
X96685000Y-144740000D01*
X98191928Y-144740000D01*
X98195000Y-145554250D01*
X98353750Y-145713000D01*
X99573000Y-145713000D01*
X99573000Y-144263750D01*
X99414250Y-144105000D01*
X98830000Y-144101928D01*
X98705518Y-144114188D01*
X98585820Y-144150498D01*
X98475506Y-144209463D01*
X98378815Y-144288815D01*
X98299463Y-144385506D01*
X98240498Y-144495820D01*
X98204188Y-144615518D01*
X98191928Y-144740000D01*
X96685000Y-144740000D01*
X96685000Y-140033647D01*
X96688314Y-140000000D01*
X96675088Y-139865717D01*
X96635919Y-139736594D01*
X96572312Y-139617593D01*
X96486711Y-139513289D01*
X96382407Y-139427688D01*
X96263406Y-139364081D01*
X96134283Y-139324912D01*
X96033647Y-139315000D01*
X96000000Y-139311686D01*
X95966353Y-139315000D01*
X65033647Y-139315000D01*
X65000000Y-139311686D01*
X64966353Y-139315000D01*
X64865717Y-139324912D01*
X64736594Y-139364081D01*
X64617593Y-139427688D01*
X64513289Y-139513289D01*
X64427688Y-139617593D01*
X64364081Y-139736594D01*
X64324912Y-139865717D01*
X64311686Y-140000000D01*
X64315001Y-140033657D01*
X64315000Y-151315000D01*
X57685000Y-151315000D01*
X57685000Y-143779872D01*
X57765000Y-143779872D01*
X57765000Y-144220128D01*
X57850890Y-144651925D01*
X58019369Y-145058669D01*
X58263962Y-145424729D01*
X58575271Y-145736038D01*
X58941331Y-145980631D01*
X59348075Y-146149110D01*
X59779872Y-146235000D01*
X60220128Y-146235000D01*
X60651925Y-146149110D01*
X61058669Y-145980631D01*
X61424729Y-145736038D01*
X61736038Y-145424729D01*
X61980631Y-145058669D01*
X62149110Y-144651925D01*
X62235000Y-144220128D01*
X62235000Y-143779872D01*
X62149110Y-143348075D01*
X61980631Y-142941331D01*
X61736038Y-142575271D01*
X61424729Y-142263962D01*
X61058669Y-142019369D01*
X60651925Y-141850890D01*
X60220128Y-141765000D01*
X59779872Y-141765000D01*
X59348075Y-141850890D01*
X58941331Y-142019369D01*
X58575271Y-142263962D01*
X58263962Y-142575271D01*
X58019369Y-142941331D01*
X57850890Y-143348075D01*
X57765000Y-143779872D01*
X57685000Y-143779872D01*
X57685000Y-136530000D01*
X80431928Y-136530000D01*
X80444188Y-136654482D01*
X80480498Y-136774180D01*
X80539463Y-136884494D01*
X80618815Y-136981185D01*
X80715506Y-137060537D01*
X80825820Y-137119502D01*
X80945518Y-137155812D01*
X81070000Y-137168072D01*
X81634250Y-137165000D01*
X81793000Y-137006250D01*
X81793000Y-135807000D01*
X80593750Y-135807000D01*
X80435000Y-135965750D01*
X80431928Y-136530000D01*
X57685000Y-136530000D01*
X57685000Y-102518665D01*
X65245000Y-102518665D01*
X65245000Y-102801335D01*
X65300147Y-103078574D01*
X65408320Y-103339727D01*
X65565363Y-103574759D01*
X65765241Y-103774637D01*
X65920001Y-103878044D01*
X65920000Y-111601956D01*
X65765241Y-111705363D01*
X65565363Y-111905241D01*
X65408320Y-112140273D01*
X65300147Y-112401426D01*
X65245000Y-112678665D01*
X65245000Y-112961335D01*
X65300147Y-113238574D01*
X65408320Y-113499727D01*
X65565363Y-113734759D01*
X65765241Y-113934637D01*
X66000273Y-114091680D01*
X66261426Y-114199853D01*
X66538665Y-114255000D01*
X66821335Y-114255000D01*
X67098574Y-114199853D01*
X67359727Y-114091680D01*
X67496936Y-114000000D01*
X69736324Y-114000000D01*
X69740001Y-114037332D01*
X69740000Y-121682678D01*
X69736324Y-121720000D01*
X69740000Y-121757322D01*
X69740000Y-121757332D01*
X69750997Y-121868985D01*
X69794454Y-122012246D01*
X69865026Y-122144276D01*
X69904871Y-122192826D01*
X69959999Y-122260001D01*
X69989003Y-122283804D01*
X81900198Y-134195000D01*
X81792998Y-134195000D01*
X81792998Y-134353748D01*
X81634250Y-134195000D01*
X81070000Y-134191928D01*
X80945518Y-134204188D01*
X80825820Y-134240498D01*
X80715506Y-134299463D01*
X80618815Y-134378815D01*
X80539463Y-134475506D01*
X80480498Y-134585820D01*
X80444188Y-134705518D01*
X80431928Y-134830000D01*
X80435000Y-135394250D01*
X80593750Y-135553000D01*
X81793000Y-135553000D01*
X81793000Y-135533000D01*
X82047000Y-135533000D01*
X82047000Y-135553000D01*
X82067000Y-135553000D01*
X82067000Y-135807000D01*
X82047000Y-135807000D01*
X82047000Y-137006250D01*
X82205750Y-137165000D01*
X82770000Y-137168072D01*
X82894482Y-137155812D01*
X83014180Y-137119502D01*
X83124494Y-137060537D01*
X83221185Y-136981185D01*
X83300537Y-136884494D01*
X83359502Y-136774180D01*
X83381513Y-136701620D01*
X83513368Y-136833475D01*
X83756589Y-136995990D01*
X84026842Y-137107932D01*
X84313740Y-137165000D01*
X84606260Y-137165000D01*
X84893158Y-137107932D01*
X85163411Y-136995990D01*
X85406632Y-136833475D01*
X85613475Y-136626632D01*
X85730000Y-136452240D01*
X85846525Y-136626632D01*
X86053368Y-136833475D01*
X86296589Y-136995990D01*
X86566842Y-137107932D01*
X86853740Y-137165000D01*
X87146260Y-137165000D01*
X87433158Y-137107932D01*
X87703411Y-136995990D01*
X87946632Y-136833475D01*
X88153475Y-136626632D01*
X88270000Y-136452240D01*
X88386525Y-136626632D01*
X88593368Y-136833475D01*
X88836589Y-136995990D01*
X89106842Y-137107932D01*
X89393740Y-137165000D01*
X89686260Y-137165000D01*
X89973158Y-137107932D01*
X90243411Y-136995990D01*
X90486632Y-136833475D01*
X90693475Y-136626632D01*
X90810000Y-136452240D01*
X90926525Y-136626632D01*
X91133368Y-136833475D01*
X91376589Y-136995990D01*
X91646842Y-137107932D01*
X91933740Y-137165000D01*
X92226260Y-137165000D01*
X92513158Y-137107932D01*
X92783411Y-136995990D01*
X93026632Y-136833475D01*
X93233475Y-136626632D01*
X93350000Y-136452240D01*
X93466525Y-136626632D01*
X93673368Y-136833475D01*
X93916589Y-136995990D01*
X94186842Y-137107932D01*
X94473740Y-137165000D01*
X94766260Y-137165000D01*
X95053158Y-137107932D01*
X95323411Y-136995990D01*
X95566632Y-136833475D01*
X95773475Y-136626632D01*
X95935990Y-136383411D01*
X96047932Y-136113158D01*
X96105000Y-135826260D01*
X96105000Y-135533740D01*
X96047932Y-135246842D01*
X95935990Y-134976589D01*
X95773475Y-134733368D01*
X95566632Y-134526525D01*
X95421350Y-134429451D01*
X111514004Y-118336798D01*
X111543001Y-118313001D01*
X111637974Y-118197276D01*
X111708546Y-118065247D01*
X111752003Y-117921986D01*
X111763000Y-117810333D01*
X111763000Y-117810325D01*
X111766676Y-117773000D01*
X111763000Y-117735675D01*
X111763000Y-114000322D01*
X111766676Y-113962999D01*
X111763000Y-113925676D01*
X111763000Y-113925667D01*
X111752003Y-113814014D01*
X111708546Y-113670753D01*
X111637974Y-113538724D01*
X111543001Y-113422999D01*
X111514003Y-113399201D01*
X97920000Y-99805199D01*
X97920000Y-93718043D01*
X98074759Y-93614637D01*
X98274637Y-93414759D01*
X98431680Y-93179727D01*
X98539853Y-92918574D01*
X98595000Y-92641335D01*
X98595000Y-92358665D01*
X98539853Y-92081426D01*
X98431680Y-91820273D01*
X98274637Y-91585241D01*
X98074759Y-91385363D01*
X97839727Y-91228320D01*
X97578574Y-91120147D01*
X97301335Y-91065000D01*
X97018665Y-91065000D01*
X96741426Y-91120147D01*
X96480273Y-91228320D01*
X96245241Y-91385363D01*
X96045363Y-91585241D01*
X95941957Y-91740000D01*
X94680802Y-91740000D01*
X87690804Y-84750003D01*
X87667001Y-84720999D01*
X87551276Y-84626026D01*
X87419247Y-84555454D01*
X87275986Y-84511997D01*
X87164333Y-84501000D01*
X87164322Y-84501000D01*
X87127000Y-84497324D01*
X87089678Y-84501000D01*
X84116322Y-84501000D01*
X84078999Y-84497324D01*
X84041676Y-84501000D01*
X84041667Y-84501000D01*
X83930014Y-84511997D01*
X83786753Y-84555454D01*
X83654723Y-84626026D01*
X83571083Y-84694668D01*
X83538999Y-84720999D01*
X83515201Y-84749997D01*
X82540606Y-85724592D01*
X82471807Y-85687818D01*
X82201308Y-85605764D01*
X81920000Y-85578057D01*
X81638691Y-85605764D01*
X81368192Y-85687818D01*
X81118899Y-85821068D01*
X80900392Y-86000393D01*
X80721068Y-86218900D01*
X80652735Y-86346742D01*
X80502601Y-86117161D01*
X80304895Y-85915500D01*
X80071646Y-85756285D01*
X79811818Y-85645633D01*
X79729039Y-85628096D01*
X79507000Y-85750085D01*
X79507000Y-87293000D01*
X79527000Y-87293000D01*
X79527000Y-87547000D01*
X79507000Y-87547000D01*
X79507000Y-87567000D01*
X79253000Y-87567000D01*
X79253000Y-87547000D01*
X79233000Y-87547000D01*
X79233000Y-87293000D01*
X79253000Y-87293000D01*
X79253000Y-85750085D01*
X79030961Y-85628096D01*
X78948182Y-85645633D01*
X78688354Y-85756285D01*
X78455105Y-85915500D01*
X78257399Y-86117161D01*
X78107265Y-86346741D01*
X78038932Y-86218899D01*
X77859607Y-86000392D01*
X77641100Y-85821068D01*
X77391807Y-85687818D01*
X77121308Y-85605764D01*
X76840000Y-85578057D01*
X76558691Y-85605764D01*
X76288192Y-85687818D01*
X76038899Y-85821068D01*
X75820392Y-86000393D01*
X75641068Y-86218900D01*
X75507818Y-86468193D01*
X75425764Y-86738692D01*
X75405000Y-86949509D01*
X75405000Y-87704198D01*
X73934999Y-86234198D01*
X73934999Y-79927000D01*
X75405000Y-79927000D01*
X75405000Y-80327000D01*
X75457350Y-80604514D01*
X75562834Y-80866483D01*
X75717399Y-81102839D01*
X75915105Y-81304500D01*
X76148354Y-81463715D01*
X76408182Y-81574367D01*
X76490961Y-81591904D01*
X76713000Y-81469915D01*
X76713000Y-79927000D01*
X75405000Y-79927000D01*
X73934999Y-79927000D01*
X73934999Y-79273000D01*
X75405000Y-79273000D01*
X75405000Y-79673000D01*
X76713000Y-79673000D01*
X76713000Y-78130085D01*
X76490961Y-78008096D01*
X76408182Y-78025633D01*
X76148354Y-78136285D01*
X75915105Y-78295500D01*
X75717399Y-78497161D01*
X75562834Y-78733517D01*
X75457350Y-78995486D01*
X75405000Y-79273000D01*
X73934999Y-79273000D01*
X73934999Y-76110509D01*
X74158665Y-76155000D01*
X74441335Y-76155000D01*
X74718574Y-76099853D01*
X74979727Y-75991680D01*
X75214759Y-75834637D01*
X75414637Y-75634759D01*
X75518043Y-75480000D01*
X78161957Y-75480000D01*
X78265363Y-75634759D01*
X78465241Y-75834637D01*
X78620001Y-75938044D01*
X78620000Y-78179099D01*
X78578899Y-78201068D01*
X78360392Y-78380393D01*
X78181068Y-78598900D01*
X78112735Y-78726742D01*
X77962601Y-78497161D01*
X77764895Y-78295500D01*
X77531646Y-78136285D01*
X77271818Y-78025633D01*
X77189039Y-78008096D01*
X76967000Y-78130085D01*
X76967000Y-79673000D01*
X76987000Y-79673000D01*
X76987000Y-79927000D01*
X76967000Y-79927000D01*
X76967000Y-81469915D01*
X77189039Y-81591904D01*
X77271818Y-81574367D01*
X77531646Y-81463715D01*
X77764895Y-81304500D01*
X77962601Y-81102839D01*
X78112735Y-80873259D01*
X78181068Y-81001101D01*
X78360393Y-81219608D01*
X78578900Y-81398932D01*
X78828193Y-81532182D01*
X79098692Y-81614236D01*
X79380000Y-81641943D01*
X79661309Y-81614236D01*
X79931808Y-81532182D01*
X80181101Y-81398932D01*
X80399608Y-81219608D01*
X80578932Y-81001101D01*
X80650000Y-80868142D01*
X80721068Y-81001101D01*
X80900393Y-81219608D01*
X81118900Y-81398932D01*
X81368193Y-81532182D01*
X81638692Y-81614236D01*
X81920000Y-81641943D01*
X82201309Y-81614236D01*
X82471808Y-81532182D01*
X82721101Y-81398932D01*
X82939608Y-81219608D01*
X83118932Y-81001101D01*
X83190000Y-80868142D01*
X83261068Y-81001101D01*
X83440393Y-81219608D01*
X83658900Y-81398932D01*
X83908193Y-81532182D01*
X84178692Y-81614236D01*
X84460000Y-81641943D01*
X84741309Y-81614236D01*
X85011808Y-81532182D01*
X85261101Y-81398932D01*
X85479608Y-81219608D01*
X85658932Y-81001101D01*
X85792182Y-80751808D01*
X85874236Y-80481309D01*
X85895000Y-80270491D01*
X85895000Y-79329508D01*
X85874236Y-79118691D01*
X85792182Y-78848192D01*
X85658932Y-78598899D01*
X85479607Y-78380392D01*
X85261100Y-78201068D01*
X85011807Y-78067818D01*
X84741308Y-77985764D01*
X84460000Y-77958057D01*
X84178691Y-77985764D01*
X83908192Y-78067818D01*
X83658899Y-78201068D01*
X83440392Y-78380393D01*
X83261068Y-78598900D01*
X83190000Y-78731858D01*
X83118932Y-78598899D01*
X82939607Y-78380392D01*
X82721100Y-78201068D01*
X82680000Y-78179100D01*
X82680000Y-74578665D01*
X83025000Y-74578665D01*
X83025000Y-74861335D01*
X83080147Y-75138574D01*
X83188320Y-75399727D01*
X83345363Y-75634759D01*
X83545241Y-75834637D01*
X83780273Y-75991680D01*
X84041426Y-76099853D01*
X84318665Y-76155000D01*
X84601335Y-76155000D01*
X84878574Y-76099853D01*
X85139727Y-75991680D01*
X85374759Y-75834637D01*
X85574637Y-75634759D01*
X85731680Y-75399727D01*
X85839853Y-75138574D01*
X85895000Y-74861335D01*
X85895000Y-74578665D01*
X88105000Y-74578665D01*
X88105000Y-74861335D01*
X88160147Y-75138574D01*
X88268320Y-75399727D01*
X88425363Y-75634759D01*
X88625241Y-75834637D01*
X88860273Y-75991680D01*
X89121426Y-76099853D01*
X89398665Y-76155000D01*
X89681335Y-76155000D01*
X89863887Y-76118688D01*
X100464000Y-86718802D01*
X100464001Y-96791666D01*
X100460324Y-96828998D01*
X100474998Y-96977983D01*
X100518454Y-97121244D01*
X100589026Y-97253274D01*
X100656559Y-97335562D01*
X100684000Y-97368999D01*
X100712998Y-97392797D01*
X109385578Y-106065378D01*
X109353919Y-106071675D01*
X109038169Y-106202463D01*
X108754002Y-106392337D01*
X108512337Y-106634002D01*
X108322463Y-106918169D01*
X108191675Y-107233919D01*
X108125000Y-107569117D01*
X108125000Y-107910883D01*
X108191675Y-108246081D01*
X108322463Y-108561831D01*
X108512337Y-108845998D01*
X108754002Y-109087663D01*
X109038169Y-109277537D01*
X109353919Y-109408325D01*
X109689117Y-109475000D01*
X110030883Y-109475000D01*
X110366081Y-109408325D01*
X110681831Y-109277537D01*
X110965998Y-109087663D01*
X111207663Y-108845998D01*
X111397537Y-108561831D01*
X111528325Y-108246081D01*
X111534622Y-108214422D01*
X117352998Y-114032798D01*
X117352998Y-114083748D01*
X117194250Y-113925000D01*
X116680000Y-113921928D01*
X116555518Y-113934188D01*
X116435820Y-113970498D01*
X116325506Y-114029463D01*
X116228815Y-114108815D01*
X116149463Y-114205506D01*
X116090498Y-114315820D01*
X116061339Y-114411943D01*
X115894759Y-114245363D01*
X115659727Y-114088320D01*
X115398574Y-113980147D01*
X115121335Y-113925000D01*
X114838665Y-113925000D01*
X114561426Y-113980147D01*
X114300273Y-114088320D01*
X114065241Y-114245363D01*
X113865363Y-114445241D01*
X113708320Y-114680273D01*
X113600147Y-114941426D01*
X113545000Y-115218665D01*
X113545000Y-115501335D01*
X113600147Y-115778574D01*
X113708320Y-116039727D01*
X113865363Y-116274759D01*
X114065241Y-116474637D01*
X114300273Y-116631680D01*
X114561426Y-116739853D01*
X114838665Y-116795000D01*
X115121335Y-116795000D01*
X115398574Y-116739853D01*
X115659727Y-116631680D01*
X115894759Y-116474637D01*
X116061339Y-116308057D01*
X116090498Y-116404180D01*
X116149463Y-116514494D01*
X116228815Y-116611185D01*
X116325506Y-116690537D01*
X116435820Y-116749502D01*
X116555518Y-116785812D01*
X116680000Y-116798072D01*
X117194250Y-116795000D01*
X117353000Y-116636250D01*
X117353000Y-115487000D01*
X117333000Y-115487000D01*
X117333000Y-115233000D01*
X117353000Y-115233000D01*
X117353000Y-115213000D01*
X117607000Y-115213000D01*
X117607000Y-115233000D01*
X117627000Y-115233000D01*
X117627000Y-115487000D01*
X117607000Y-115487000D01*
X117607000Y-116636250D01*
X117765750Y-116795000D01*
X117895001Y-116795772D01*
X117895002Y-126570196D01*
X101729003Y-142736196D01*
X101699999Y-142759999D01*
X101644871Y-142827174D01*
X101605026Y-142875724D01*
X101569958Y-142941331D01*
X101534454Y-143007754D01*
X101490997Y-143151015D01*
X101480000Y-143262668D01*
X101480000Y-143262678D01*
X101476324Y-143300000D01*
X101480000Y-143337323D01*
X101480000Y-144309727D01*
X101399821Y-144352583D01*
X101172615Y-144539047D01*
X101159502Y-144495820D01*
X101100537Y-144385506D01*
X101021185Y-144288815D01*
X100924494Y-144209463D01*
X100814180Y-144150498D01*
X100694482Y-144114188D01*
X100570000Y-144101928D01*
X99985750Y-144105000D01*
X99827000Y-144263750D01*
X99827000Y-145713000D01*
X99847000Y-145713000D01*
X99847000Y-145967000D01*
X99827000Y-145967000D01*
X99827000Y-147416250D01*
X99985750Y-147575000D01*
X100570000Y-147578072D01*
X100694482Y-147565812D01*
X100814180Y-147529502D01*
X100924494Y-147470537D01*
X101021185Y-147391185D01*
X101100537Y-147294494D01*
X101159502Y-147184180D01*
X101172615Y-147140953D01*
X101399822Y-147327417D01*
X101661276Y-147467166D01*
X101944969Y-147553224D01*
X102240000Y-147582282D01*
X102535032Y-147553224D01*
X102818725Y-147467166D01*
X103080179Y-147327417D01*
X103309345Y-147139345D01*
X103472943Y-146940000D01*
X108351928Y-146940000D01*
X108364188Y-147064482D01*
X108400498Y-147184180D01*
X108459463Y-147294494D01*
X108538815Y-147391185D01*
X108635506Y-147470537D01*
X108745820Y-147529502D01*
X108865518Y-147565812D01*
X108990000Y-147578072D01*
X109574250Y-147575000D01*
X109733000Y-147416250D01*
X109733000Y-145967000D01*
X108513750Y-145967000D01*
X108355000Y-146125750D01*
X108351928Y-146940000D01*
X103472943Y-146940000D01*
X103497417Y-146910179D01*
X103637166Y-146648724D01*
X103723224Y-146365031D01*
X103745000Y-146143935D01*
X103745000Y-145536064D01*
X103723224Y-145314968D01*
X103637166Y-145031275D01*
X103497417Y-144769821D01*
X103472944Y-144740000D01*
X108351928Y-144740000D01*
X108355000Y-145554250D01*
X108513750Y-145713000D01*
X109733000Y-145713000D01*
X109733000Y-144263750D01*
X109574250Y-144105000D01*
X108990000Y-144101928D01*
X108865518Y-144114188D01*
X108745820Y-144150498D01*
X108635506Y-144209463D01*
X108538815Y-144288815D01*
X108459463Y-144385506D01*
X108400498Y-144495820D01*
X108364188Y-144615518D01*
X108351928Y-144740000D01*
X103472944Y-144740000D01*
X103309345Y-144540655D01*
X103080178Y-144352583D01*
X103000000Y-144309727D01*
X103000000Y-143614801D01*
X111640000Y-134974801D01*
X111640001Y-144309726D01*
X111559821Y-144352583D01*
X111332615Y-144539047D01*
X111319502Y-144495820D01*
X111260537Y-144385506D01*
X111181185Y-144288815D01*
X111084494Y-144209463D01*
X110974180Y-144150498D01*
X110854482Y-144114188D01*
X110730000Y-144101928D01*
X110145750Y-144105000D01*
X109987000Y-144263750D01*
X109987000Y-145713000D01*
X110007000Y-145713000D01*
X110007000Y-145967000D01*
X109987000Y-145967000D01*
X109987000Y-147416250D01*
X110145750Y-147575000D01*
X110730000Y-147578072D01*
X110854482Y-147565812D01*
X110974180Y-147529502D01*
X111084494Y-147470537D01*
X111181185Y-147391185D01*
X111260537Y-147294494D01*
X111319502Y-147184180D01*
X111332615Y-147140953D01*
X111559822Y-147327417D01*
X111821276Y-147467166D01*
X112104969Y-147553224D01*
X112400000Y-147582282D01*
X112695032Y-147553224D01*
X112978725Y-147467166D01*
X113240179Y-147327417D01*
X113469345Y-147139345D01*
X113657417Y-146910179D01*
X113797166Y-146648724D01*
X113883224Y-146365031D01*
X113905000Y-146143935D01*
X113905000Y-145536064D01*
X113883224Y-145314968D01*
X113797166Y-145031275D01*
X113657417Y-144769821D01*
X113469345Y-144540655D01*
X113240178Y-144352583D01*
X113160000Y-144309727D01*
X113160000Y-143779872D01*
X117765000Y-143779872D01*
X117765000Y-144220128D01*
X117850890Y-144651925D01*
X118019369Y-145058669D01*
X118263962Y-145424729D01*
X118575271Y-145736038D01*
X118941331Y-145980631D01*
X119348075Y-146149110D01*
X119779872Y-146235000D01*
X120220128Y-146235000D01*
X120651925Y-146149110D01*
X121058669Y-145980631D01*
X121424729Y-145736038D01*
X121736038Y-145424729D01*
X121980631Y-145058669D01*
X122149110Y-144651925D01*
X122235000Y-144220128D01*
X122235000Y-143779872D01*
X122149110Y-143348075D01*
X121980631Y-142941331D01*
X121736038Y-142575271D01*
X121424729Y-142263962D01*
X121058669Y-142019369D01*
X120651925Y-141850890D01*
X120220128Y-141765000D01*
X119779872Y-141765000D01*
X119348075Y-141850890D01*
X118941331Y-142019369D01*
X118575271Y-142263962D01*
X118263962Y-142575271D01*
X118019369Y-142941331D01*
X117850890Y-143348075D01*
X117765000Y-143779872D01*
X113160000Y-143779872D01*
X113160000Y-134343801D01*
X119616019Y-127887784D01*
X119645012Y-127863990D01*
X119668806Y-127834997D01*
X119668810Y-127834993D01*
X119739984Y-127748266D01*
X119739985Y-127748265D01*
X119810557Y-127616236D01*
X119854014Y-127472975D01*
X119865011Y-127361322D01*
X119865011Y-127361313D01*
X119868687Y-127323990D01*
X119865011Y-127286667D01*
X119865011Y-114110924D01*
X119868687Y-114073599D01*
X119865011Y-114036274D01*
X119865011Y-114036266D01*
X119854014Y-113924613D01*
X119810557Y-113781352D01*
X119739985Y-113649323D01*
X119645012Y-113533598D01*
X119616015Y-113509801D01*
X112746214Y-106640000D01*
X115741928Y-106640000D01*
X115741928Y-108840000D01*
X115754188Y-108964482D01*
X115790498Y-109084180D01*
X115849463Y-109194494D01*
X115928815Y-109291185D01*
X116025506Y-109370537D01*
X116135820Y-109429502D01*
X116255518Y-109465812D01*
X116380000Y-109478072D01*
X118580000Y-109478072D01*
X118704482Y-109465812D01*
X118824180Y-109429502D01*
X118934494Y-109370537D01*
X119031185Y-109291185D01*
X119110537Y-109194494D01*
X119169502Y-109084180D01*
X119205812Y-108964482D01*
X119218072Y-108840000D01*
X119218072Y-106640000D01*
X119205812Y-106515518D01*
X119169502Y-106395820D01*
X119110537Y-106285506D01*
X119031185Y-106188815D01*
X118934494Y-106109463D01*
X118824180Y-106050498D01*
X118704482Y-106014188D01*
X118580000Y-106001928D01*
X116380000Y-106001928D01*
X116255518Y-106014188D01*
X116135820Y-106050498D01*
X116025506Y-106109463D01*
X115928815Y-106188815D01*
X115849463Y-106285506D01*
X115790498Y-106395820D01*
X115754188Y-106515518D01*
X115741928Y-106640000D01*
X112746214Y-106640000D01*
X102492000Y-96385787D01*
X102492000Y-94176400D01*
X110898328Y-94176400D01*
X110898328Y-95903600D01*
X110910588Y-96028082D01*
X110946898Y-96147780D01*
X111005863Y-96258094D01*
X111085215Y-96354785D01*
X111181906Y-96434137D01*
X111292220Y-96493102D01*
X111411918Y-96529412D01*
X111536400Y-96541672D01*
X113263600Y-96541672D01*
X113388082Y-96529412D01*
X113507780Y-96493102D01*
X113618094Y-96434137D01*
X113714785Y-96354785D01*
X113794137Y-96258094D01*
X113853102Y-96147780D01*
X113870636Y-96089977D01*
X113984698Y-96204039D01*
X114230147Y-96368042D01*
X114502875Y-96481010D01*
X114792401Y-96538600D01*
X115087599Y-96538600D01*
X115377125Y-96481010D01*
X115649853Y-96368042D01*
X115895302Y-96204039D01*
X116104039Y-95995302D01*
X116268042Y-95749853D01*
X116381010Y-95477125D01*
X116438600Y-95187599D01*
X116438600Y-94892401D01*
X116381010Y-94602875D01*
X116268042Y-94330147D01*
X116104039Y-94084698D01*
X115895302Y-93875961D01*
X115729897Y-93765441D01*
X115828488Y-93706817D01*
X116046854Y-93510293D01*
X116222684Y-93274944D01*
X116349222Y-93009814D01*
X116394958Y-92859026D01*
X116273817Y-92627000D01*
X115067000Y-92627000D01*
X115067000Y-92647000D01*
X114813000Y-92647000D01*
X114813000Y-92627000D01*
X112527000Y-92627000D01*
X112527000Y-92647000D01*
X112273000Y-92647000D01*
X112273000Y-92627000D01*
X111066183Y-92627000D01*
X110945042Y-92859026D01*
X110990778Y-93009814D01*
X111117316Y-93274944D01*
X111293146Y-93510293D01*
X111356574Y-93567376D01*
X111292220Y-93586898D01*
X111181906Y-93645863D01*
X111085215Y-93725215D01*
X111005863Y-93821906D01*
X110946898Y-93932220D01*
X110910588Y-94051918D01*
X110898328Y-94176400D01*
X102492000Y-94176400D01*
X102492000Y-90319026D01*
X110945042Y-90319026D01*
X110990778Y-90469814D01*
X111117316Y-90734944D01*
X111293146Y-90970293D01*
X111511512Y-91166817D01*
X111617770Y-91230000D01*
X111511512Y-91293183D01*
X111293146Y-91489707D01*
X111117316Y-91725056D01*
X110990778Y-91990186D01*
X110945042Y-92140974D01*
X111066183Y-92373000D01*
X112273000Y-92373000D01*
X112273000Y-90087000D01*
X112527000Y-90087000D01*
X112527000Y-92373000D01*
X114813000Y-92373000D01*
X114813000Y-90087000D01*
X115067000Y-90087000D01*
X115067000Y-92373000D01*
X116273817Y-92373000D01*
X116394958Y-92140974D01*
X116349222Y-91990186D01*
X116222684Y-91725056D01*
X116046854Y-91489707D01*
X115828488Y-91293183D01*
X115722230Y-91230000D01*
X115828488Y-91166817D01*
X116046854Y-90970293D01*
X116222684Y-90734944D01*
X116349222Y-90469814D01*
X116394958Y-90319026D01*
X116273817Y-90087000D01*
X115067000Y-90087000D01*
X114813000Y-90087000D01*
X112527000Y-90087000D01*
X112273000Y-90087000D01*
X111066183Y-90087000D01*
X110945042Y-90319026D01*
X102492000Y-90319026D01*
X102492000Y-87779026D01*
X110945042Y-87779026D01*
X110990778Y-87929814D01*
X111117316Y-88194944D01*
X111293146Y-88430293D01*
X111511512Y-88626817D01*
X111617770Y-88690000D01*
X111511512Y-88753183D01*
X111293146Y-88949707D01*
X111117316Y-89185056D01*
X110990778Y-89450186D01*
X110945042Y-89600974D01*
X111066183Y-89833000D01*
X112273000Y-89833000D01*
X112273000Y-87547000D01*
X112527000Y-87547000D01*
X112527000Y-89833000D01*
X114813000Y-89833000D01*
X114813000Y-87547000D01*
X115067000Y-87547000D01*
X115067000Y-89833000D01*
X116273817Y-89833000D01*
X116394958Y-89600974D01*
X116349222Y-89450186D01*
X116222684Y-89185056D01*
X116046854Y-88949707D01*
X115828488Y-88753183D01*
X115722230Y-88690000D01*
X115828488Y-88626817D01*
X116046854Y-88430293D01*
X116222684Y-88194944D01*
X116349222Y-87929814D01*
X116394958Y-87779026D01*
X116273817Y-87547000D01*
X115067000Y-87547000D01*
X114813000Y-87547000D01*
X112527000Y-87547000D01*
X112273000Y-87547000D01*
X111066183Y-87547000D01*
X110945042Y-87779026D01*
X102492000Y-87779026D01*
X102492000Y-84732401D01*
X110901400Y-84732401D01*
X110901400Y-85027599D01*
X110958990Y-85317125D01*
X111071958Y-85589853D01*
X111235961Y-85835302D01*
X111444698Y-86044039D01*
X111610103Y-86154559D01*
X111511512Y-86213183D01*
X111293146Y-86409707D01*
X111117316Y-86645056D01*
X110990778Y-86910186D01*
X110945042Y-87060974D01*
X111066183Y-87293000D01*
X112273000Y-87293000D01*
X112273000Y-87273000D01*
X112527000Y-87273000D01*
X112527000Y-87293000D01*
X114813000Y-87293000D01*
X114813000Y-87273000D01*
X115067000Y-87273000D01*
X115067000Y-87293000D01*
X116273817Y-87293000D01*
X116394958Y-87060974D01*
X116349222Y-86910186D01*
X116222684Y-86645056D01*
X116046854Y-86409707D01*
X115828488Y-86213183D01*
X115729897Y-86154559D01*
X115895302Y-86044039D01*
X116104039Y-85835302D01*
X116268042Y-85589853D01*
X116381010Y-85317125D01*
X116438600Y-85027599D01*
X116438600Y-84732401D01*
X116381010Y-84442875D01*
X116268042Y-84170147D01*
X116104039Y-83924698D01*
X115895302Y-83715961D01*
X115649853Y-83551958D01*
X115377125Y-83438990D01*
X115087599Y-83381400D01*
X114792401Y-83381400D01*
X114502875Y-83438990D01*
X114230147Y-83551958D01*
X113984698Y-83715961D01*
X113775961Y-83924698D01*
X113670000Y-84083281D01*
X113564039Y-83924698D01*
X113355302Y-83715961D01*
X113109853Y-83551958D01*
X112837125Y-83438990D01*
X112547599Y-83381400D01*
X112252401Y-83381400D01*
X111962875Y-83438990D01*
X111690147Y-83551958D01*
X111444698Y-83715961D01*
X111235961Y-83924698D01*
X111071958Y-84170147D01*
X110958990Y-84442875D01*
X110901400Y-84732401D01*
X102492000Y-84732401D01*
X102492000Y-81869323D01*
X102495676Y-81832000D01*
X102492000Y-81794677D01*
X102492000Y-81794667D01*
X102481003Y-81683014D01*
X102437546Y-81539753D01*
X102366974Y-81407724D01*
X102272001Y-81291999D01*
X102243004Y-81268202D01*
X96018688Y-75043887D01*
X96055000Y-74861335D01*
X96055000Y-74578665D01*
X95999853Y-74301426D01*
X95891680Y-74040273D01*
X95734637Y-73805241D01*
X95534759Y-73605363D01*
X95299727Y-73448320D01*
X95038574Y-73340147D01*
X94761335Y-73285000D01*
X94478665Y-73285000D01*
X94201426Y-73340147D01*
X93940273Y-73448320D01*
X93705241Y-73605363D01*
X93505363Y-73805241D01*
X93348320Y-74040273D01*
X93240147Y-74301426D01*
X93185000Y-74578665D01*
X93185000Y-74861335D01*
X93240147Y-75138574D01*
X93348320Y-75399727D01*
X93505363Y-75634759D01*
X93705241Y-75834637D01*
X93940273Y-75991680D01*
X94201426Y-76099853D01*
X94478665Y-76155000D01*
X94761335Y-76155000D01*
X94943887Y-76118688D01*
X100972000Y-82146802D01*
X100972000Y-85077198D01*
X90938688Y-75043887D01*
X90975000Y-74861335D01*
X90975000Y-74578665D01*
X90919853Y-74301426D01*
X90811680Y-74040273D01*
X90654637Y-73805241D01*
X90454759Y-73605363D01*
X90219727Y-73448320D01*
X89958574Y-73340147D01*
X89681335Y-73285000D01*
X89398665Y-73285000D01*
X89121426Y-73340147D01*
X88860273Y-73448320D01*
X88625241Y-73605363D01*
X88425363Y-73805241D01*
X88268320Y-74040273D01*
X88160147Y-74301426D01*
X88105000Y-74578665D01*
X85895000Y-74578665D01*
X85839853Y-74301426D01*
X85731680Y-74040273D01*
X85574637Y-73805241D01*
X85374759Y-73605363D01*
X85174131Y-73471308D01*
X85201514Y-73456671D01*
X85273097Y-73212702D01*
X84460000Y-72399605D01*
X83646903Y-73212702D01*
X83718486Y-73456671D01*
X83747341Y-73470324D01*
X83545241Y-73605363D01*
X83345363Y-73805241D01*
X83188320Y-74040273D01*
X83080147Y-74301426D01*
X83025000Y-74578665D01*
X82680000Y-74578665D01*
X82680000Y-72290512D01*
X83019783Y-72290512D01*
X83061213Y-72570130D01*
X83156397Y-72836292D01*
X83223329Y-72961514D01*
X83467298Y-73033097D01*
X84280395Y-72220000D01*
X84639605Y-72220000D01*
X85452702Y-73033097D01*
X85696671Y-72961514D01*
X85817571Y-72706004D01*
X85886300Y-72431816D01*
X85900217Y-72149488D01*
X85858787Y-71869870D01*
X85763603Y-71603708D01*
X85696671Y-71478486D01*
X85452702Y-71406903D01*
X84639605Y-72220000D01*
X84280395Y-72220000D01*
X83467298Y-71406903D01*
X83223329Y-71478486D01*
X83102429Y-71733996D01*
X83033700Y-72008184D01*
X83019783Y-72290512D01*
X82680000Y-72290512D01*
X82680000Y-71227298D01*
X83646903Y-71227298D01*
X84460000Y-72040395D01*
X85273097Y-71227298D01*
X85229879Y-71080000D01*
X108121928Y-71080000D01*
X108121928Y-73280000D01*
X108134188Y-73404482D01*
X108170498Y-73524180D01*
X108229463Y-73634494D01*
X108308815Y-73731185D01*
X108405506Y-73810537D01*
X108515820Y-73869502D01*
X108635518Y-73905812D01*
X108760000Y-73918072D01*
X110960000Y-73918072D01*
X111084482Y-73905812D01*
X111204180Y-73869502D01*
X111314494Y-73810537D01*
X111411185Y-73731185D01*
X111490537Y-73634494D01*
X111549502Y-73524180D01*
X111585812Y-73404482D01*
X111598072Y-73280000D01*
X111598072Y-72009117D01*
X115745000Y-72009117D01*
X115745000Y-72350883D01*
X115811675Y-72686081D01*
X115942463Y-73001831D01*
X116132337Y-73285998D01*
X116374002Y-73527663D01*
X116658169Y-73717537D01*
X116973919Y-73848325D01*
X117309117Y-73915000D01*
X117650883Y-73915000D01*
X117986081Y-73848325D01*
X118301831Y-73717537D01*
X118585998Y-73527663D01*
X118827663Y-73285998D01*
X119017537Y-73001831D01*
X119148325Y-72686081D01*
X119215000Y-72350883D01*
X119215000Y-72009117D01*
X119148325Y-71673919D01*
X119017537Y-71358169D01*
X118827663Y-71074002D01*
X118585998Y-70832337D01*
X118301831Y-70642463D01*
X117986081Y-70511675D01*
X117650883Y-70445000D01*
X117309117Y-70445000D01*
X116973919Y-70511675D01*
X116658169Y-70642463D01*
X116374002Y-70832337D01*
X116132337Y-71074002D01*
X115942463Y-71358169D01*
X115811675Y-71673919D01*
X115745000Y-72009117D01*
X111598072Y-72009117D01*
X111598072Y-71080000D01*
X111585812Y-70955518D01*
X111549502Y-70835820D01*
X111490537Y-70725506D01*
X111411185Y-70628815D01*
X111314494Y-70549463D01*
X111204180Y-70490498D01*
X111084482Y-70454188D01*
X110960000Y-70441928D01*
X108760000Y-70441928D01*
X108635518Y-70454188D01*
X108515820Y-70490498D01*
X108405506Y-70549463D01*
X108308815Y-70628815D01*
X108229463Y-70725506D01*
X108170498Y-70835820D01*
X108134188Y-70955518D01*
X108121928Y-71080000D01*
X85229879Y-71080000D01*
X85201514Y-70983329D01*
X84946004Y-70862429D01*
X84671816Y-70793700D01*
X84389488Y-70779783D01*
X84109870Y-70821213D01*
X83843708Y-70916397D01*
X83718486Y-70983329D01*
X83646903Y-71227298D01*
X82680000Y-71227298D01*
X82680000Y-67394801D01*
X84754802Y-65320000D01*
X88321957Y-65320000D01*
X88425363Y-65474759D01*
X88625241Y-65674637D01*
X88860273Y-65831680D01*
X89121426Y-65939853D01*
X89398665Y-65995000D01*
X89681335Y-65995000D01*
X89958574Y-65939853D01*
X90219727Y-65831680D01*
X90454759Y-65674637D01*
X90654637Y-65474759D01*
X90758043Y-65320000D01*
X93401957Y-65320000D01*
X93505363Y-65474759D01*
X93705241Y-65674637D01*
X93940273Y-65831680D01*
X94201426Y-65939853D01*
X94478665Y-65995000D01*
X94761335Y-65995000D01*
X95038574Y-65939853D01*
X95299727Y-65831680D01*
X95534759Y-65674637D01*
X95734637Y-65474759D01*
X95891680Y-65239727D01*
X95999853Y-64978574D01*
X96055000Y-64701335D01*
X96055000Y-64418665D01*
X95999853Y-64141426D01*
X95891680Y-63880273D01*
X95811317Y-63760000D01*
X113501928Y-63760000D01*
X113501928Y-65360000D01*
X113514188Y-65484482D01*
X113550498Y-65604180D01*
X113609463Y-65714494D01*
X113688815Y-65811185D01*
X113785506Y-65890537D01*
X113895820Y-65949502D01*
X114015518Y-65985812D01*
X114140000Y-65998072D01*
X115740000Y-65998072D01*
X115864482Y-65985812D01*
X115984180Y-65949502D01*
X116094494Y-65890537D01*
X116191185Y-65811185D01*
X116270537Y-65714494D01*
X116329502Y-65604180D01*
X116345117Y-65552702D01*
X116626903Y-65552702D01*
X116698486Y-65796671D01*
X116953996Y-65917571D01*
X117228184Y-65986300D01*
X117510512Y-66000217D01*
X117790130Y-65958787D01*
X118056292Y-65863603D01*
X118181514Y-65796671D01*
X118253097Y-65552702D01*
X117440000Y-64739605D01*
X116626903Y-65552702D01*
X116345117Y-65552702D01*
X116365812Y-65484482D01*
X116378072Y-65360000D01*
X116378072Y-65352785D01*
X116447298Y-65373097D01*
X117260395Y-64560000D01*
X117619605Y-64560000D01*
X118432702Y-65373097D01*
X118676671Y-65301514D01*
X118797571Y-65046004D01*
X118866300Y-64771816D01*
X118880217Y-64489488D01*
X118838787Y-64209870D01*
X118743603Y-63943708D01*
X118676671Y-63818486D01*
X118432702Y-63746903D01*
X117619605Y-64560000D01*
X117260395Y-64560000D01*
X116447298Y-63746903D01*
X116378072Y-63767215D01*
X116378072Y-63760000D01*
X116365812Y-63635518D01*
X116345118Y-63567298D01*
X116626903Y-63567298D01*
X117440000Y-64380395D01*
X118253097Y-63567298D01*
X118181514Y-63323329D01*
X117926004Y-63202429D01*
X117651816Y-63133700D01*
X117369488Y-63119783D01*
X117089870Y-63161213D01*
X116823708Y-63256397D01*
X116698486Y-63323329D01*
X116626903Y-63567298D01*
X116345118Y-63567298D01*
X116329502Y-63515820D01*
X116270537Y-63405506D01*
X116191185Y-63308815D01*
X116094494Y-63229463D01*
X115984180Y-63170498D01*
X115864482Y-63134188D01*
X115740000Y-63121928D01*
X114140000Y-63121928D01*
X114015518Y-63134188D01*
X113895820Y-63170498D01*
X113785506Y-63229463D01*
X113688815Y-63308815D01*
X113609463Y-63405506D01*
X113550498Y-63515820D01*
X113514188Y-63635518D01*
X113501928Y-63760000D01*
X95811317Y-63760000D01*
X95734637Y-63645241D01*
X95534759Y-63445363D01*
X95299727Y-63288320D01*
X95038574Y-63180147D01*
X94761335Y-63125000D01*
X94478665Y-63125000D01*
X94201426Y-63180147D01*
X93940273Y-63288320D01*
X93705241Y-63445363D01*
X93505363Y-63645241D01*
X93401957Y-63800000D01*
X90758043Y-63800000D01*
X90654637Y-63645241D01*
X90454759Y-63445363D01*
X90219727Y-63288320D01*
X89958574Y-63180147D01*
X89681335Y-63125000D01*
X89398665Y-63125000D01*
X89121426Y-63180147D01*
X88860273Y-63288320D01*
X88625241Y-63445363D01*
X88425363Y-63645241D01*
X88321957Y-63800000D01*
X84477322Y-63800000D01*
X84439999Y-63796324D01*
X84402676Y-63800000D01*
X84402667Y-63800000D01*
X84291014Y-63810997D01*
X84147753Y-63854454D01*
X84015724Y-63925026D01*
X83899999Y-64019999D01*
X83876201Y-64048997D01*
X81910001Y-66015198D01*
X80778688Y-64883886D01*
X80815000Y-64701335D01*
X80815000Y-64418665D01*
X80759853Y-64141426D01*
X80651680Y-63880273D01*
X80494637Y-63645241D01*
X80294759Y-63445363D01*
X80059727Y-63288320D01*
X79798574Y-63180147D01*
X79521335Y-63125000D01*
X79238665Y-63125000D01*
X78961426Y-63180147D01*
X78700273Y-63288320D01*
X78465241Y-63445363D01*
X78265363Y-63645241D01*
X78108320Y-63880273D01*
X78000147Y-64141426D01*
X77945000Y-64418665D01*
X77945000Y-64701335D01*
X78000147Y-64978574D01*
X78108320Y-65239727D01*
X78265363Y-65474759D01*
X78465241Y-65674637D01*
X78700273Y-65831680D01*
X78961426Y-65939853D01*
X79238665Y-65995000D01*
X79521335Y-65995000D01*
X79703886Y-65958688D01*
X81160000Y-67414803D01*
X81160001Y-78179099D01*
X81118899Y-78201068D01*
X80900392Y-78380393D01*
X80721068Y-78598900D01*
X80650000Y-78731858D01*
X80578932Y-78598899D01*
X80399607Y-78380392D01*
X80181100Y-78201068D01*
X80140000Y-78179100D01*
X80140000Y-75938043D01*
X80294759Y-75834637D01*
X80494637Y-75634759D01*
X80651680Y-75399727D01*
X80759853Y-75138574D01*
X80815000Y-74861335D01*
X80815000Y-74578665D01*
X80759853Y-74301426D01*
X80651680Y-74040273D01*
X80494637Y-73805241D01*
X80294759Y-73605363D01*
X80059727Y-73448320D01*
X79798574Y-73340147D01*
X79521335Y-73285000D01*
X79238665Y-73285000D01*
X78961426Y-73340147D01*
X78700273Y-73448320D01*
X78465241Y-73605363D01*
X78265363Y-73805241D01*
X78161957Y-73960000D01*
X75518043Y-73960000D01*
X75414637Y-73805241D01*
X75214759Y-73605363D01*
X74979727Y-73448320D01*
X74718574Y-73340147D01*
X74441335Y-73285000D01*
X74158665Y-73285000D01*
X73934999Y-73329491D01*
X73934999Y-65999802D01*
X73976113Y-65958688D01*
X74158665Y-65995000D01*
X74441335Y-65995000D01*
X74718574Y-65939853D01*
X74979727Y-65831680D01*
X75214759Y-65674637D01*
X75414637Y-65474759D01*
X75571680Y-65239727D01*
X75679853Y-64978574D01*
X75735000Y-64701335D01*
X75735000Y-64418665D01*
X75679853Y-64141426D01*
X75571680Y-63880273D01*
X75414637Y-63645241D01*
X75214759Y-63445363D01*
X74979727Y-63288320D01*
X74718574Y-63180147D01*
X74441335Y-63125000D01*
X74158665Y-63125000D01*
X73881426Y-63180147D01*
X73620273Y-63288320D01*
X73385241Y-63445363D01*
X73185363Y-63645241D01*
X73028320Y-63880273D01*
X72920147Y-64141426D01*
X72865000Y-64418665D01*
X72865000Y-64701335D01*
X72901312Y-64883887D01*
X72664001Y-65121197D01*
X72634998Y-65145000D01*
X72609318Y-65176292D01*
X72540025Y-65260725D01*
X72469454Y-65392754D01*
X72469453Y-65392755D01*
X72425996Y-65536016D01*
X72414999Y-65647669D01*
X72414999Y-65647679D01*
X72411323Y-65685001D01*
X72414999Y-65722323D01*
X72415000Y-86511666D01*
X72411323Y-86548999D01*
X72415000Y-86586332D01*
X72417872Y-86615486D01*
X72425997Y-86697984D01*
X72469453Y-86841245D01*
X72540025Y-86973275D01*
X72558449Y-86995724D01*
X72634999Y-87089000D01*
X72663997Y-87112798D01*
X75057211Y-89506013D01*
X75081009Y-89535011D01*
X75110007Y-89558809D01*
X75196733Y-89629984D01*
X75328763Y-89700556D01*
X75472024Y-89744013D01*
X75583677Y-89755010D01*
X75583687Y-89755010D01*
X75621010Y-89758686D01*
X75658333Y-89755010D01*
X82847668Y-89755010D01*
X82884990Y-89758686D01*
X82922312Y-89755010D01*
X82922323Y-89755010D01*
X83033976Y-89744013D01*
X83177237Y-89700556D01*
X83309266Y-89629984D01*
X83424991Y-89535011D01*
X83448794Y-89506007D01*
X83696729Y-89258072D01*
X84348273Y-89258072D01*
X96479222Y-101389022D01*
X96245241Y-101545363D01*
X96045363Y-101745241D01*
X95888320Y-101980273D01*
X95780147Y-102241426D01*
X95725000Y-102518665D01*
X95725000Y-102801335D01*
X95780147Y-103078574D01*
X95888320Y-103339727D01*
X96045363Y-103574759D01*
X96245241Y-103774637D01*
X96400001Y-103878044D01*
X96400000Y-111601956D01*
X96245241Y-111705363D01*
X96045363Y-111905241D01*
X95888320Y-112140273D01*
X95780147Y-112401426D01*
X95725000Y-112678665D01*
X95725000Y-112961335D01*
X95780147Y-113238574D01*
X95888320Y-113499727D01*
X96045363Y-113734759D01*
X96245241Y-113934637D01*
X96480273Y-114091680D01*
X96741426Y-114199853D01*
X97018665Y-114255000D01*
X97301335Y-114255000D01*
X97578574Y-114199853D01*
X97839727Y-114091680D01*
X98074759Y-113934637D01*
X98274637Y-113734759D01*
X98431680Y-113499727D01*
X98539853Y-113238574D01*
X98595000Y-112961335D01*
X98595000Y-112678665D01*
X98539853Y-112401426D01*
X98431680Y-112140273D01*
X98274637Y-111905241D01*
X98074759Y-111705363D01*
X97920000Y-111601957D01*
X97920000Y-103878043D01*
X98074759Y-103774637D01*
X98274637Y-103574759D01*
X98430978Y-103340778D01*
X109740001Y-114649801D01*
X109740000Y-116945198D01*
X92446408Y-134238791D01*
X92226260Y-134195000D01*
X92099801Y-134195000D01*
X101011004Y-125283798D01*
X101040001Y-125260001D01*
X101134974Y-125144276D01*
X101205546Y-125012247D01*
X101249003Y-124868986D01*
X101260000Y-124757333D01*
X101260000Y-124757325D01*
X101263676Y-124720000D01*
X101260000Y-124682675D01*
X101260000Y-114794801D01*
X101836114Y-114218688D01*
X102018665Y-114255000D01*
X102301335Y-114255000D01*
X102578574Y-114199853D01*
X102839727Y-114091680D01*
X103074759Y-113934637D01*
X103274637Y-113734759D01*
X103431680Y-113499727D01*
X103539853Y-113238574D01*
X103595000Y-112961335D01*
X103595000Y-112678665D01*
X103539853Y-112401426D01*
X103431680Y-112140273D01*
X103274637Y-111905241D01*
X103074759Y-111705363D01*
X102839727Y-111548320D01*
X102578574Y-111440147D01*
X102301335Y-111385000D01*
X102018665Y-111385000D01*
X101741426Y-111440147D01*
X101480273Y-111548320D01*
X101245241Y-111705363D01*
X101045363Y-111905241D01*
X100888320Y-112140273D01*
X100780147Y-112401426D01*
X100725000Y-112678665D01*
X100725000Y-112961335D01*
X100761312Y-113143886D01*
X99988998Y-113916201D01*
X99960000Y-113939999D01*
X99936202Y-113968997D01*
X99936201Y-113968998D01*
X99865026Y-114055724D01*
X99794454Y-114187754D01*
X99750998Y-114331015D01*
X99736324Y-114480000D01*
X99740001Y-114517332D01*
X99740000Y-124405198D01*
X89906408Y-134238791D01*
X89686260Y-134195000D01*
X89393740Y-134195000D01*
X89106842Y-134252068D01*
X88836589Y-134364010D01*
X88593368Y-134526525D01*
X88386525Y-134733368D01*
X88270000Y-134907760D01*
X88153475Y-134733368D01*
X87946632Y-134526525D01*
X87703411Y-134364010D01*
X87433158Y-134252068D01*
X87146260Y-134195000D01*
X86853740Y-134195000D01*
X86633592Y-134238791D01*
X86260000Y-133865199D01*
X86260000Y-114554801D01*
X86596114Y-114218688D01*
X86778665Y-114255000D01*
X87061335Y-114255000D01*
X87338574Y-114199853D01*
X87599727Y-114091680D01*
X87834759Y-113934637D01*
X88034637Y-113734759D01*
X88191680Y-113499727D01*
X88299853Y-113238574D01*
X88355000Y-112961335D01*
X88355000Y-112678665D01*
X88299853Y-112401426D01*
X88191680Y-112140273D01*
X88034637Y-111905241D01*
X87834759Y-111705363D01*
X87599727Y-111548320D01*
X87338574Y-111440147D01*
X87061335Y-111385000D01*
X86778665Y-111385000D01*
X86501426Y-111440147D01*
X86240273Y-111548320D01*
X86005241Y-111705363D01*
X85805363Y-111905241D01*
X85648320Y-112140273D01*
X85540147Y-112401426D01*
X85485000Y-112678665D01*
X85485000Y-112961335D01*
X85521312Y-113143886D01*
X84988998Y-113676201D01*
X84960000Y-113699999D01*
X84936202Y-113728997D01*
X84936201Y-113728998D01*
X84865026Y-113815724D01*
X84794454Y-113947754D01*
X84778606Y-114000000D01*
X84750998Y-114091014D01*
X84741641Y-114186012D01*
X84736324Y-114240000D01*
X84740001Y-114277333D01*
X84740000Y-134142678D01*
X84736324Y-134180000D01*
X84740000Y-134217322D01*
X84740000Y-134217332D01*
X84740429Y-134221688D01*
X84606260Y-134195000D01*
X84313740Y-134195000D01*
X84093592Y-134238790D01*
X71260000Y-121405199D01*
X71260000Y-114314801D01*
X71356114Y-114218688D01*
X71538665Y-114255000D01*
X71821335Y-114255000D01*
X72098574Y-114199853D01*
X72359727Y-114091680D01*
X72594759Y-113934637D01*
X72794637Y-113734759D01*
X72951680Y-113499727D01*
X73059853Y-113238574D01*
X73115000Y-112961335D01*
X73115000Y-112678665D01*
X73059853Y-112401426D01*
X72951680Y-112140273D01*
X72794637Y-111905241D01*
X72594759Y-111705363D01*
X72359727Y-111548320D01*
X72098574Y-111440147D01*
X71821335Y-111385000D01*
X71538665Y-111385000D01*
X71261426Y-111440147D01*
X71000273Y-111548320D01*
X70765241Y-111705363D01*
X70565363Y-111905241D01*
X70408320Y-112140273D01*
X70300147Y-112401426D01*
X70245000Y-112678665D01*
X70245000Y-112961335D01*
X70281312Y-113143886D01*
X69988998Y-113436201D01*
X69960000Y-113459999D01*
X69936202Y-113488997D01*
X69936201Y-113488998D01*
X69865026Y-113575724D01*
X69794454Y-113707754D01*
X69781944Y-113748996D01*
X69750998Y-113851014D01*
X69743749Y-113924613D01*
X69736324Y-114000000D01*
X67496936Y-114000000D01*
X67594759Y-113934637D01*
X67794637Y-113734759D01*
X67951680Y-113499727D01*
X68059853Y-113238574D01*
X68115000Y-112961335D01*
X68115000Y-112678665D01*
X68059853Y-112401426D01*
X67951680Y-112140273D01*
X67794637Y-111905241D01*
X67594759Y-111705363D01*
X67440000Y-111601957D01*
X67440000Y-103878043D01*
X67594759Y-103774637D01*
X67794637Y-103574759D01*
X67951680Y-103339727D01*
X68059853Y-103078574D01*
X68115000Y-102801335D01*
X68115000Y-102518665D01*
X80485000Y-102518665D01*
X80485000Y-102801335D01*
X80540147Y-103078574D01*
X80648320Y-103339727D01*
X80805363Y-103574759D01*
X81005241Y-103774637D01*
X81160001Y-103878044D01*
X81160000Y-111601956D01*
X81005241Y-111705363D01*
X80805363Y-111905241D01*
X80648320Y-112140273D01*
X80540147Y-112401426D01*
X80485000Y-112678665D01*
X80485000Y-112961335D01*
X80540147Y-113238574D01*
X80648320Y-113499727D01*
X80805363Y-113734759D01*
X81005241Y-113934637D01*
X81240273Y-114091680D01*
X81501426Y-114199853D01*
X81778665Y-114255000D01*
X82061335Y-114255000D01*
X82338574Y-114199853D01*
X82599727Y-114091680D01*
X82834759Y-113934637D01*
X83034637Y-113734759D01*
X83191680Y-113499727D01*
X83299853Y-113238574D01*
X83355000Y-112961335D01*
X83355000Y-112678665D01*
X83299853Y-112401426D01*
X83191680Y-112140273D01*
X83034637Y-111905241D01*
X82834759Y-111705363D01*
X82680000Y-111601957D01*
X82680000Y-103878043D01*
X82834759Y-103774637D01*
X83034637Y-103574759D01*
X83191680Y-103339727D01*
X83299853Y-103078574D01*
X83355000Y-102801335D01*
X83355000Y-102518665D01*
X83299853Y-102241426D01*
X83191680Y-101980273D01*
X83034637Y-101745241D01*
X82834759Y-101545363D01*
X82599727Y-101388320D01*
X82338574Y-101280147D01*
X82061335Y-101225000D01*
X81778665Y-101225000D01*
X81501426Y-101280147D01*
X81240273Y-101388320D01*
X81005241Y-101545363D01*
X80805363Y-101745241D01*
X80648320Y-101980273D01*
X80540147Y-102241426D01*
X80485000Y-102518665D01*
X68115000Y-102518665D01*
X68059853Y-102241426D01*
X67951680Y-101980273D01*
X67794637Y-101745241D01*
X67594759Y-101545363D01*
X67359727Y-101388320D01*
X67098574Y-101280147D01*
X66821335Y-101225000D01*
X66538665Y-101225000D01*
X66261426Y-101280147D01*
X66000273Y-101388320D01*
X65765241Y-101545363D01*
X65565363Y-101745241D01*
X65408320Y-101980273D01*
X65300147Y-102241426D01*
X65245000Y-102518665D01*
X57685000Y-102518665D01*
X57685000Y-96032702D01*
X76026903Y-96032702D01*
X76098486Y-96276671D01*
X76353996Y-96397571D01*
X76628184Y-96466300D01*
X76910512Y-96480217D01*
X77190130Y-96438787D01*
X77456292Y-96343603D01*
X77581514Y-96276671D01*
X77653097Y-96032702D01*
X76840000Y-95219605D01*
X76026903Y-96032702D01*
X57685000Y-96032702D01*
X57685000Y-95110512D01*
X75399783Y-95110512D01*
X75441213Y-95390130D01*
X75536397Y-95656292D01*
X75603329Y-95781514D01*
X75847298Y-95853097D01*
X76660395Y-95040000D01*
X77019605Y-95040000D01*
X77832702Y-95853097D01*
X78076671Y-95781514D01*
X78197571Y-95526004D01*
X78266300Y-95251816D01*
X78280217Y-94969488D01*
X78238787Y-94689870D01*
X78143603Y-94423708D01*
X78076671Y-94298486D01*
X77832702Y-94226903D01*
X77019605Y-95040000D01*
X76660395Y-95040000D01*
X75847298Y-94226903D01*
X75603329Y-94298486D01*
X75482429Y-94553996D01*
X75413700Y-94828184D01*
X75399783Y-95110512D01*
X57685000Y-95110512D01*
X57685000Y-92358665D01*
X65245000Y-92358665D01*
X65245000Y-92641335D01*
X65300147Y-92918574D01*
X65408320Y-93179727D01*
X65565363Y-93414759D01*
X65765241Y-93614637D01*
X66000273Y-93771680D01*
X66261426Y-93879853D01*
X66538665Y-93935000D01*
X66821335Y-93935000D01*
X67098574Y-93879853D01*
X67359727Y-93771680D01*
X67594759Y-93614637D01*
X67794637Y-93414759D01*
X67951680Y-93179727D01*
X68059853Y-92918574D01*
X68115000Y-92641335D01*
X68115000Y-92358665D01*
X68078688Y-92176114D01*
X68129803Y-92124999D01*
X75459436Y-92124999D01*
X75405000Y-92398665D01*
X75405000Y-92681335D01*
X75460147Y-92958574D01*
X75568320Y-93219727D01*
X75725363Y-93454759D01*
X75925241Y-93654637D01*
X76125869Y-93788692D01*
X76098486Y-93803329D01*
X76026903Y-94047298D01*
X76840000Y-94860395D01*
X77653097Y-94047298D01*
X77581514Y-93803329D01*
X77552659Y-93789676D01*
X77754759Y-93654637D01*
X77954637Y-93454759D01*
X78111680Y-93219727D01*
X78219853Y-92958574D01*
X78275000Y-92681335D01*
X78275000Y-92398665D01*
X78220564Y-92124999D01*
X80470198Y-92124999D01*
X80521312Y-92176113D01*
X80485000Y-92358665D01*
X80485000Y-92641335D01*
X80540147Y-92918574D01*
X80648320Y-93179727D01*
X80805363Y-93414759D01*
X81005241Y-93614637D01*
X81240273Y-93771680D01*
X81501426Y-93879853D01*
X81778665Y-93935000D01*
X82061335Y-93935000D01*
X82338574Y-93879853D01*
X82599727Y-93771680D01*
X82834759Y-93614637D01*
X83034637Y-93414759D01*
X83191680Y-93179727D01*
X83299853Y-92918574D01*
X83355000Y-92641335D01*
X83355000Y-92358665D01*
X83299853Y-92081426D01*
X83191680Y-91820273D01*
X83034637Y-91585241D01*
X82834759Y-91385363D01*
X82599727Y-91228320D01*
X82338574Y-91120147D01*
X82061335Y-91065000D01*
X81778665Y-91065000D01*
X81596113Y-91101312D01*
X81348803Y-90854001D01*
X81325000Y-90824998D01*
X81209275Y-90730025D01*
X81077246Y-90659453D01*
X80933985Y-90615996D01*
X80822332Y-90604999D01*
X80822321Y-90604999D01*
X80784999Y-90601323D01*
X80747677Y-90604999D01*
X67852324Y-90604999D01*
X67815001Y-90601323D01*
X67777678Y-90604999D01*
X67777668Y-90604999D01*
X67666015Y-90615996D01*
X67522754Y-90659453D01*
X67390725Y-90730025D01*
X67275000Y-90824998D01*
X67251202Y-90853996D01*
X67003886Y-91101312D01*
X66821335Y-91065000D01*
X66538665Y-91065000D01*
X66261426Y-91120147D01*
X66000273Y-91228320D01*
X65765241Y-91385363D01*
X65565363Y-91585241D01*
X65408320Y-91820273D01*
X65300147Y-92081426D01*
X65245000Y-92358665D01*
X57685000Y-92358665D01*
X57685000Y-38779872D01*
X57765000Y-38779872D01*
X57765000Y-39220128D01*
X57850890Y-39651925D01*
X58019369Y-40058669D01*
X58263962Y-40424729D01*
X58575271Y-40736038D01*
X58941331Y-40980631D01*
X59348075Y-41149110D01*
X59779872Y-41235000D01*
X60220128Y-41235000D01*
X60651925Y-41149110D01*
X61058669Y-40980631D01*
X61424729Y-40736038D01*
X61736038Y-40424729D01*
X61980631Y-40058669D01*
X62149110Y-39651925D01*
X62235000Y-39220128D01*
X62235000Y-38779872D01*
X117765000Y-38779872D01*
X117765000Y-39220128D01*
X117850890Y-39651925D01*
X118019369Y-40058669D01*
X118263962Y-40424729D01*
X118575271Y-40736038D01*
X118941331Y-40980631D01*
X119348075Y-41149110D01*
X119779872Y-41235000D01*
X120220128Y-41235000D01*
X120651925Y-41149110D01*
X121058669Y-40980631D01*
X121424729Y-40736038D01*
X121736038Y-40424729D01*
X121980631Y-40058669D01*
X122149110Y-39651925D01*
X122235000Y-39220128D01*
X122235000Y-38779872D01*
X122149110Y-38348075D01*
X121980631Y-37941331D01*
X121736038Y-37575271D01*
X121424729Y-37263962D01*
X121058669Y-37019369D01*
X120651925Y-36850890D01*
X120220128Y-36765000D01*
X119779872Y-36765000D01*
X119348075Y-36850890D01*
X118941331Y-37019369D01*
X118575271Y-37263962D01*
X118263962Y-37575271D01*
X118019369Y-37941331D01*
X117850890Y-38348075D01*
X117765000Y-38779872D01*
X62235000Y-38779872D01*
X62149110Y-38348075D01*
X61980631Y-37941331D01*
X61736038Y-37575271D01*
X61424729Y-37263962D01*
X61058669Y-37019369D01*
X60651925Y-36850890D01*
X60220128Y-36765000D01*
X59779872Y-36765000D01*
X59348075Y-36850890D01*
X58941331Y-37019369D01*
X58575271Y-37263962D01*
X58263962Y-37575271D01*
X58019369Y-37941331D01*
X57850890Y-38348075D01*
X57765000Y-38779872D01*
X57685000Y-38779872D01*
X57685000Y-36685000D01*
X122315000Y-36685000D01*
X122315001Y-151315000D01*
G37*
%TD.AperFunction*%
%TD*%
M02*
